<?xml version="1.0" encoding="UTF-8" standalone="no"?>
<svg
   xmlns:dc="http://purl.org/dc/elements/1.1/"
   xmlns:cc="http://creativecommons.org/ns#"
   xmlns:rdf="http://www.w3.org/1999/02/22-rdf-syntax-ns#"
   xmlns:svg="http://www.w3.org/2000/svg"
   xmlns="http://www.w3.org/2000/svg"
   version="1.1"
   id="svg2"
   width="1600"
   height="1600"
   viewBox="0 0 1600 1600">
  <metadata
     id="metadata8">
    <rdf:RDF>
      <cc:Work
         rdf:about="">
        <dc:format>image/svg+xml</dc:format>
        <dc:type
           rdf:resource="http://purl.org/dc/dcmitype/StillImage" />
        <dc:title></dc:title>
      </cc:Work>
    </rdf:RDF>
  </metadata>
  <defs
     id="defs6" />
  <path
     style="fill:#3e603b;stroke-width:5.99562025;fill-opacity:1"
     d="M 705.57989,1561.3244 C 423.06675,1519.945 192.4026,1340.0578 91.376989,1082.3282 56.602758,993.61459 42.05271,914.08335 42.017394,812.52534 41.987417,718.87136 47.90383,673.72492 70.432549,595.79386 127.37128,398.83215 279.73463,218.82732 465.75502,128.75278 580.38257,73.247953 675.10928,52.081797 807.5055,52.390447 c 137.88005,0.321374 237.1959,24.405119 356.9659,86.562673 73.1954,37.98664 128.1589,78.94104 190.0254,141.59186 250.9264,254.10794 287.4843,649.42736 87.8299,949.75092 -37.3012,56.1088 -119.1874,141.2965 -177.6731,184.8367 -82.9141,61.7255 -191.964,111.4604 -296.32027,135.1443 -39.84095,9.0419 -223.67477,16.771 -262.75344,11.0475 z m 261.25186,-112.0581 c 123.03365,-32.0814 223.21745,-89.2239 311.60385,-177.7318 232.6545,-232.9742 260.0443,-588.82873 65.5563,-851.72223 C 1149.4289,156.81678 792.57822,72.322716 502.67488,220.60747 315.88612,316.14943 183.02796,493.71122 147.79399,694.89726 c -62.335269,355.93424 178.40831,696.51134 540.73,764.96264 72.14859,13.631 204.76372,8.5827 278.30776,-10.5936 z M 658.61422,1309.1624 c -2.19839,-2.198 -3.99703,-120.8064 -3.99703,-263.5735 V 786.01211 l -52.46179,-1.73275 -52.46169,-1.73213 v -74.94524 -74.94526 l 51.75107,-1.72194 51.75106,-1.72195 3.15723,-94.20798 c 1.73665,-51.81416 6.45746,-105.77659 10.49105,-119.91606 9.50448,-33.31827 52.8296,-81.33869 92.05127,-102.02718 29.17489,-15.38902 34.73495,-16.15315 117.55974,-16.15627 87.58354,-0.003 146.15257,5.26457 161.07607,14.48775 6.688,4.13357 5.8127,17.81066 -5.0689,79.19142 -7.2343,40.80714 -13.6589,74.7098 -14.2767,75.33909 -0.618,0.62937 -20.09632,-1.79245 -43.28538,-5.38177 -50.53492,-7.82213 -80.68117,-3.14609 -102.91821,15.96381 -15.98156,13.73411 -16.57614,16.41475 -18.52231,83.50394 l -2.01076,69.31418 85.94945,1.66618 85.94941,1.66678 -2.0502,38.97153 c -1.1277,21.43434 -3.8256,55.1597 -5.9956,74.94524 l -3.9455,35.97373 -79.44194,1.67278 -79.44196,1.67339 v 263.6328 263.6335 h -94.93062 c -52.21194,0 -96.72937,-1.7988 -98.92776,-3.9973 z"
     id="path12" />
</svg>
