<?xml version="1.0" encoding="UTF-8" standalone="no"?>
<svg
   xmlns:dc="http://purl.org/dc/elements/1.1/"
   xmlns:cc="http://creativecommons.org/ns#"
   xmlns:rdf="http://www.w3.org/1999/02/22-rdf-syntax-ns#"
   xmlns:svg="http://www.w3.org/2000/svg"
   xmlns="http://www.w3.org/2000/svg"
   viewBox="0 0 1600 1600"
   height="1600"
   width="1600"
   id="svg2"
   version="1.1">
  <metadata
     id="metadata8">
    <rdf:RDF>
      <cc:Work
         rdf:about="">
        <dc:format>image/svg+xml</dc:format>
        <dc:type
           rdf:resource="http://purl.org/dc/dcmitype/StillImage" />
        <dc:title></dc:title>
      </cc:Work>
    </rdf:RDF>
  </metadata>
  <defs
     id="defs6" />
  <path
     id="path12"
     d="m 784.49161,1587.0088 c -173.8031,-3.6619 -338.71397,-63.0834 -474.12628,-170.8398 -39.37502,-31.3332 -76.90045,-67.6301 -109.72825,-106.1359 -37.03063,-43.4357 -68.59761,-89.7739 -95.62484,-140.3708 -49.973266,-93.5535 -80.1262,-195.70376 -89.365685,-302.74733 -3.63164,-42.07421 -3.63164,-91.9615 0,-134.03571 C 24.88604,625.83569 55.038974,523.68552 105.01224,430.13198 151.77458,342.58951 213.82051,265.52923 290.02658,200.34646 386.14462,118.13201 504.70769,58.859656 627.4498,31.660972 686.16878,18.649314 739.25442,12.878521 800.16245,12.885887 c 68.88521,0.0078 130.1568,7.665981 195.71879,24.46073 122.11626,31.281988 232.85976,90.587053 329.42116,176.410603 21.0303,18.69175 55.8004,54.49754 75.4244,77.67114 58.1281,68.64208 103.6099,145.79788 135.6168,230.06129 64.3803,169.49146 67.5966,359.77207 8.9892,531.80825 -25.396,74.5477 -62.6479,146.3288 -108.6654,209.3892 -25.538,34.9963 -47.7028,60.7722 -80.3198,93.406 -22.016,22.0275 -32.8593,32.0052 -53.3846,49.1228 -130.6924,108.9949 -293.7881,172.6852 -463.12332,180.8538 -15.36143,0.741 -42.72052,1.2052 -55.34807,0.9391 z m 333.75549,-459.8906 c 46.0272,-8.1792 83.856,-32.5671 108.816,-70.1526 14.6026,-21.9888 23.3342,-47.1925 25.8747,-74.68656 0.9295,-10.06173 0.9295,-334.6968 0,-344.75848 -3.6844,-39.87535 -20.3172,-74.66479 -48.8067,-102.08479 -23.256,-22.38304 -52.1282,-36.75601 -85.884,-42.7542 -5.8704,-1.04315 -28.8018,-1.14341 -312.7499,-1.36734 -223.3273,-0.17612 -308.67521,-0.0383 -314.75049,0.50844 -73.8188,6.64266 -133.81417,65.06697 -143.08435,139.33751 -1.42589,11.42388 -1.42589,346.05528 0,357.47918 5.15191,41.27584 25.62519,78.16434 58.11686,104.71434 22.47081,18.3616 54.3037,31.617 82.96696,34.5479 3.14025,0.3212 143.36531,0.5267 314.41706,0.4609 286.47596,-0.1101 309.20586,-0.1998 315.08386,-1.2443 z M 703.47491,922.42976 c 0.0127,-34.11228 1.41145,-238.86843 1.63297,-239.09002 0.34243,-0.34236 238.42609,123.3684 238.42609,123.88867 0,0.39918 -238.94316,128.03807 -239.69042,128.03807 -0.2054,0 -0.37131,-5.7765 -0.36864,-12.83672 z"
     style="fill:#f9f9f9;stroke-width:0.66684431" />
</svg>
