<?xml version="1.0" encoding="UTF-8" standalone="no"?>
<svg
   xmlns:dc="http://purl.org/dc/elements/1.1/"
   xmlns:cc="http://creativecommons.org/ns#"
   xmlns:rdf="http://www.w3.org/1999/02/22-rdf-syntax-ns#"
   xmlns:svg="http://www.w3.org/2000/svg"
   xmlns="http://www.w3.org/2000/svg"
   viewBox="0 0 1600 1600"
   height="1600"
   width="1600"
   id="svg2"
   version="1.1">
  <metadata
     id="metadata8">
    <rdf:RDF>
      <cc:Work
         rdf:about="">
        <dc:format>image/svg+xml</dc:format>
        <dc:type
           rdf:resource="http://purl.org/dc/dcmitype/StillImage" />
        <dc:title></dc:title>
      </cc:Work>
    </rdf:RDF>
  </metadata>
  <defs
     id="defs6" />
  <path
     id="path12"
     d="m 607.8381,1578.0556 c -40.90586,-0.3633 -80.53953,-0.9639 -88.07482,-1.3346 -53.32154,-2.6229 -69.87936,-3.8447 -94.92509,-7.0047 -69.6374,-8.7857 -133.66754,-28.8635 -184.07656,-57.7205 -29.61497,-16.9532 -52.18941,-34.4952 -79.20957,-61.5515 -43.80243,-43.861 -71.683712,-87.3912 -94.34963,-147.3051 C 45.529301,1245.8495 34.827232,1186.097 30.912873,1100.525 27.252102,1020.4966 27.255645,586.67006 30.917766,505.53072 34.10951,434.8127 41.287784,384.37977 54.950753,336.68048 77.847075,256.74611 115.84842,195.20526 174.18709,143.58451 238.29645,86.857557 320.22131,51.515655 420.43445,37.354829 c 59.35408,-8.38715 99.16715,-9.359623 383.61478,-9.370222 256.95167,-0.0098 307.87637,0.894518 360.86957,6.40669 126.787,13.187962 222.348,55.85011 289.2123,129.115533 39.557,43.34401 67.7248,89.75398 88.2418,145.38935 17.7141,48.03517 29.3433,106.5972 32.7317,164.82974 2.1487,36.92645 3.5138,187.48139 3.5138,387.52926 0,207.71942 -0.3031,229.12892 -3.9445,278.66842 -9.7916,133.2098 -48.4316,230.667 -119.8168,302.2003 -53.4055,53.5161 -117.4528,90.1245 -195.7546,111.8898 -45.7525,12.7177 -92.4415,19.2425 -158.5347,22.155 -55.1152,2.4287 -318.25995,3.4365 -492.7297,1.8869 z m 453.0961,-138.7833 c 5.3823,-0.5414 21.6762,-1.4492 36.2085,-2.0171 36.915,-1.4427 57.4769,-3.5896 80.7353,-8.4297 6.1897,-1.288 15.6577,-3.0361 21.0401,-3.8846 41.4576,-6.5348 73.8813,-19.1837 111.003,-43.303 25.9816,-16.8814 46.216,-34.4859 59.9037,-52.1183 28.4394,-36.6355 47.5837,-81.229 55.5583,-129.414 5.0082,-30.2612 11.6325,-96.8565 12.8256,-128.9388 0.4905,-13.1868 1.6012,-37.8477 2.4683,-54.8021 1.3829,-27.03865 1.5186,-56.91755 1.1043,-243.18438 -0.3026,-136.14276 -0.8397,-216.39725 -1.4963,-223.61219 -0.5631,-6.1897 -1.4777,-22.92392 -2.0324,-37.18715 -1.4807,-38.07926 -3.8706,-60.99572 -8.7861,-84.2468 -1.0709,-5.0657 -2.866,-14.77863 -3.9892,-21.58426 -4.871,-29.51548 -11.8128,-51.63542 -23.6007,-75.20387 -13.2204,-26.43239 -27.3993,-48.00123 -46.2289,-70.3231 -15.6577,-18.56159 -43.0727,-38.59366 -72.5693,-53.02602 -27.4482,-13.43013 -51.9629,-21.30694 -82.1945,-26.40979 -28.4316,-4.79903 -105.1077,-12.22075 -136.0353,-13.16729 -10.7647,-0.32946 -31.4623,-1.23642 -45.9947,-2.01547 -21.39889,-1.14715 -64.37737,-1.41138 -226.05867,-1.38977 -188.09604,0.0251 -217.25085,0.3427 -259.69459,2.82874 -9.48849,0.55576 -26.94003,1.46377 -38.7812,2.0178 -22.88336,1.07068 -44.64877,3.53483 -60.67376,6.86912 -5.38235,1.1199 -16.17152,3.09801 -23.97593,4.3958 -31.01158,5.15689 -54.16905,12.31513 -77.31012,23.89746 -37.61628,18.82731 -69.98791,42.59645 -89.12072,65.4376 -28.9807,34.59779 -49.30066,77.71405 -58.64751,124.44216 -6.05334,30.26276 -13.17873,99.02449 -15.16507,146.34666 -0.79074,18.83823 -1.92028,43.27899 -2.51008,54.31281 -1.37951,25.80698 -0.56462,450.79144 0.89224,465.32864 0.5394,5.3823 1.43865,21.6762 1.99832,36.2085 1.64692,42.7636 3.90696,60.2606 12.95638,100.3074 12.737,56.3657 14.81811,62.8255 28.06723,87.1209 20.62398,37.8191 44.96125,68.1355 69.66293,86.7776 37.7554,28.4938 84.41187,47.3971 134.55875,54.5178 39.22761,5.5703 118.99027,12.9282 158.53468,14.6246 19.01015,0.8155 478.57372,-0.2934 487.34742,-1.1759 z m -297.98655,-238.958 c -85.63943,-7.8709 -158.37813,-39.0705 -225.56941,-96.753 C 493.20542,1065.6397 456.80242,1016.9641 434.76612,966.35535 410.9803,911.7287 400.6582,856.8303 402.13424,792.80186 c 0.9415,-40.84083 5.78687,-72.84696 16.33621,-107.90887 22.05917,-73.31615 71.87916,-146.07819 133.87141,-195.51908 58.57835,-46.71818 121.41621,-72.74513 198.86248,-82.36727 20.13376,-2.50148 79.24963,-2.51014 99.81813,-0.0146 82.48403,10.00751 146.80764,37.40556 204.04003,86.90894 12.1227,10.48561 39.7522,38.32967 50.3828,50.77413 46.4428,54.36707 75.8476,116.84054 87.5378,185.98249 7.352,43.48318 7.5516,99.26533 0.5061,141.36235 -14.0082,83.69898 -53.7237,158.12435 -117.4979,220.18725 -45.8384,44.6084 -100.80418,76.722 -160.78127,93.9362 -18.33571,5.2625 -38.88366,9.4534 -60.27312,12.293 -13.32386,1.7691 -21.96459,2.1953 -49.41976,2.4381 -18.3,0.1618 -37.45627,-0.09 -42.5695,-0.5602 z m 78.28873,-142.7697 c 56.60715,-8.6433 102.8067,-32.2139 143.88558,-73.40915 41.90464,-42.02357 65.65064,-88.99026 74.00144,-146.36689 2.3852,-16.38769 2.3796,-53.1878 -0.011,-69.4104 -7.342,-49.83373 -24.3789,-90.25432 -53.858,-127.77938 -8.45017,-10.75662 -35.78265,-37.5332 -47.07473,-46.11735 -25.86473,-19.66217 -53.02427,-33.57124 -81.77404,-41.87854 -49.1023,-14.18817 -106.74596,-13.87087 -155.05294,0.85348 -28.36438,8.64569 -59.16052,25.09722 -83.66751,44.69582 -10.69954,8.55658 -33.89,31.74704 -42.44659,42.44659 -22.18405,27.73996 -38.95267,61.03902 -47.55561,94.43578 -5.77513,22.41916 -7.9695,41.12004 -7.9807,68.01337 -0.0256,61.47564 16.56072,111.30759 51.79041,155.59885 8.5295,10.72341 29.747,31.95387 43.25667,43.28292 35.1979,29.5168 79.20639,49.1467 124.47188,55.5204 19.67077,2.7699 20.19965,2.7981 45.8061,2.447 16.9684,-0.2327 26.46072,-0.8441 36.20854,-2.3325 z M 1199.8967,478.69232 c -18.4797,-4.27112 -32.7468,-12.39498 -47.5585,-27.08023 -20.6116,-20.43575 -30.2608,-43.54471 -28.963,-69.36407 1.1784,-23.44424 9.7004,-41.65356 28.3328,-60.53991 18.3962,-18.64693 37.7797,-27.94471 60.9106,-29.21731 23.2809,-1.28086 43.9007,6.20967 63.798,23.1758 14.1193,12.03949 25.1643,28.16468 30.8432,45.02997 2.9951,8.89485 3.1318,9.97372 3.1628,24.95453 0.037,18.04436 -1.0013,23.07091 -7.6843,37.18715 -11.8944,25.12409 -37.0028,47.00894 -62.4045,54.39278 -9.2637,2.69281 -31.6142,3.5005 -40.4371,1.46129 z"
     style="fill:#f9f9f9;stroke-width:0.97860914" />
</svg>
