<?xml version="1.0" encoding="UTF-8" standalone="no"?>
<svg
   xmlns:dc="http://purl.org/dc/elements/1.1/"
   xmlns:cc="http://creativecommons.org/ns#"
   xmlns:rdf="http://www.w3.org/1999/02/22-rdf-syntax-ns#"
   xmlns:svg="http://www.w3.org/2000/svg"
   xmlns="http://www.w3.org/2000/svg"
   viewBox="0 0 1600 1600"
   height="1600"
   width="1600"
   id="svg2"
   version="1.1">
  <metadata
     id="metadata8">
    <rdf:RDF>
      <cc:Work
         rdf:about="">
        <dc:format>image/svg+xml</dc:format>
        <dc:type
           rdf:resource="http://purl.org/dc/dcmitype/StillImage" />
        <dc:title></dc:title>
      </cc:Work>
    </rdf:RDF>
  </metadata>
  <defs
     id="defs6" />
  <path
     id="path12"
     d="M 250.50354,1571.828 C 144.22736,1548.8637 61.232721,1470.2647 27.863665,1360.9803 21.741508,1340.9302 21.105619,1296.5072 19.985349,810.59304 18.658269,234.96788 18.074074,252.6304 40.244531,198.0686 68.61111,128.25805 131.48894,65.380187 201.29949,37.013641 255.86128,14.843185 238.19877,15.42738 813.82378,16.75446 c 485.91442,1.12027 530.33742,1.756159 550.38752,7.878316 90.2958,27.571075 162.7792,91.714614 195.9855,173.435824 22.1706,54.5618 21.5865,36.89928 20.2592,612.52444 -1.1201,485.91416 -1.7559,530.33716 -7.8785,550.38726 -31.6349,103.6054 -104.7549,176.7258 -208.3662,208.3677 -20.0839,6.1335 -63.9627,6.7258 -554.27417,7.4844 -460.78373,0.7128 -536.09406,0.039 -559.43359,-5.0044 z m 507.73805,-389.8677 c 45.21282,-9.6547 96.22425,-27.2093 133.31397,-45.8781 170.31214,-85.7244 286.81714,-268.82221 296.13844,-465.40656 l 2.3956,-50.52572 20.9072,-16.81185 c 20.0128,-16.09245 72.6971,-74.28332 69.8401,-77.14035 -0.7543,-0.75439 -7.7782,1.30512 -15.6085,4.57685 -14.656,6.12371 -74.1088,21.28416 -83.6575,21.33235 -2.9514,0 3.5116,-7.04096 14.3622,-15.68047 27.7635,-22.10538 65.4689,-76.30278 58.1657,-83.60608 -1.2356,-1.23555 -12.836,3.09917 -25.7784,9.63254 -12.9423,6.53336 -38.6975,16.27355 -57.2335,21.64482 l -33.7018,9.76663 -14.5775,-13.16973 c -18.7529,-16.94244 -43.0755,-30.77561 -69.9583,-39.78862 -30.4787,-10.21824 -87.25138,-9.31033 -118.22754,1.89161 -82.92839,29.98896 -135.74957,110.13832 -129.16673,195.99435 l 2.32346,30.30183 -24.18352,-2.51656 C 656.10624,653.30956 539.55784,597.66908 448.00969,506.36832 l -36.14704,-36.04934 -5.55831,10.78647 c -11.03621,21.41707 -18.0626,53.58331 -18.0626,82.68885 0,53.15268 20.59253,101.69197 58.47036,137.82097 22.53491,21.49481 22.5524,21.5294 10.91338,21.5294 -6.41168,0 -24.87352,-4.43655 -41.02626,-9.85874 -16.15275,-5.42257 -30.20142,-9.02622 -31.21938,-8.00793 -3.9803,3.98026 10.53642,60.90915 20.97929,82.27143 20.51046,41.95773 62.06313,79.03273 105.86654,94.45862 10.91428,3.84385 20.85067,7.99512 22.081,9.22561 3.5078,3.50765 -47.64807,7.999 -64.84195,5.6927 -14.40681,-1.93242 -15.28378,-1.50411 -12.95498,6.32271 9.45376,31.77451 52.34612,80.8851 86.37683,98.89953 25.31997,13.4033 58.83964,24.0766 76.34121,24.3082 l 11.9261,0.1594 -13.60311,11.6403 c -19.33068,16.5414 -86.08717,48.5693 -120.70076,57.9091 -34.47293,9.3019 -93.85758,15.5192 -124.15465,12.9991 l -21.3763,-1.7781 19.43292,12.5918 c 43.88114,28.4332 123.32244,56.5846 190.59186,67.5397 48.76449,7.9419 146.61741,5.1805 196.89775,-5.5563 z"
     style="fill:#f9f9f9;stroke-width:3.88659453" />
</svg>
