<?xml version="1.0" encoding="UTF-8" standalone="no"?>
<svg
   xmlns:dc="http://purl.org/dc/elements/1.1/"
   xmlns:cc="http://creativecommons.org/ns#"
   xmlns:rdf="http://www.w3.org/1999/02/22-rdf-syntax-ns#"
   xmlns:svg="http://www.w3.org/2000/svg"
   xmlns="http://www.w3.org/2000/svg"
   version="1.1"
   id="svg2"
   viewBox="0 0 783.086 400.649"
   enable-background="new 0 0 783.086 400.649">
  <metadata
     id="metadata30">
    <rdf:RDF>
      <cc:Work
         rdf:about="">
        <dc:format>image/svg+xml</dc:format>
        <dc:type
           rdf:resource="http://purl.org/dc/dcmitype/StillImage" />
        <dc:title></dc:title>
      </cc:Work>
    </rdf:RDF>
  </metadata>
  <defs
     id="defs28" />
  <g
     id="layer2">
    <path
       style="opacity:1;fill:none;stroke:#000000;stroke-width:3;stroke-miterlimit:4;stroke-dasharray:none;stroke-opacity:1"
       id="path18"
       d="m 46.20953,103.78413 c -1.125,1.576 -1.343592,2.52324 -2.918592,4.09824 -1.575,1.575 -2.926,0.9 -2.476,4.276 0.45,3.376 0,6.977 0.45,9.454 0.45,2.477 1.576,5.852 2.476,7.203 0.9,1.351 1.576,1.35 3.151,2.475 1.576,1.125 3.602,2.477 3.376,3.602 -0.226,1.125 0.225,8.104 0.225,8.104 0,0 1.351,2.25 1.575,4.726 0.226,2.477 1.801,4.952 1.801,4.952 l 1.351,2.927 c 0,0 0.675,0.226 1.576,2.025 0.901,1.799 0.9,1.801 1.125,2.7 0.226,0.902 0.226,0.676 0.226,0.902 0,0.224 -0.226,-3.827 -0.676,-4.953 -0.45,-1.126 -0.45,-2.475 -0.9,-3.826 -0.45,-1.351 0.225,-2.927 -1.125,-4.952 -1.35,-2.025 -1.35,-2.251 -2.025,-4.277 -0.675,-2.025 -1.576,-4.276 -0.675,-4.727 0.901,-0.451 1.575,-3.375 3.376,0 1.801,3.375 2.026,2.477 2.251,5.178 0.224,2.701 0.9,3.602 1.575,4.726 0.675,1.125 2.25,4.953 3.151,6.527 0.9,1.576 0,-0.9 2.025,2.251 2.026,3.151 2.252,3.826 3.377,6.302 1.125,2.476 1.801,2.476 2.476,4.276 0.675,1.8 0.225,1.351 -0.226,3.376 -0.451,2.025 0.45,4.277 0.45,4.277 0,0 3.151,1.125 3.376,1.8 0.225,0.675 3.376,1.8 3.827,2.701 0.451,0.901 3.376,2.025 3.376,2.025 0,0 2.476,1.576 3.375,2.026 0.899,0.45 3.603,0.901 3.603,0.901 0,0 1.8,0.451 2.475,0.675 0.675,0.225 2.701,0.225 2.701,0.225 0,0 1.801,-1.35 2.476,-0.9 0.675,0.45 2.251,-0.901 2.926,0.224 0.675002,1.125 2.026002,1.126 2.701002,2.027 0.675,0.901 1.35,0.9 2.476,2.025 1.126,1.125 2.251,0.9 3.376,1.8 1.125,0.9 2.025,0.9 3.376,0.9 1.351,0 1.35,0 2.251,0.226 0.901,0.226 1.35,-0.676 2.25,0.451 0.9,1.127 1.575,1.8 2.25,2.925 0.675,1.125 2.251,1.125 2.476,2.926 0.225,1.801 0.675,1.577 0.675,3.151 0,1.576 0.9,2.251 1.576,2.702 0.674,0.449 3.15,2.699 3.15,2.699 l 3.376,0.676 2.701,2.026 2.929,0.897 -1.575,-2.25 c 0,0 -0.675,-1.352 -1.801,-1.576 -1.126,-0.224 -3.602,-3.151 -3.602,-3.151 0,0 -1.125,-0.9 -1.125,-2.475 0,-1.575 -0.901,-4.051 -0.226,-6.752 0.675,-2.701 0.901,-6.077 0.676,-6.978 -0.226,-0.9 1.125,-1.125 -0.45,-2.026 -1.575,-0.901 -4.727,-1.125 -6.753,-1.125 -2.025,0 -4.502,0.676 -4.952,0.9 -0.45,0.225 2.476,-6.752 2.926,-7.877 0.45,-1.125 2.476,-6.078 2.476,-6.752 0,-0.676 0.675,-0.901 -0.675,-1.8 -1.35,-0.899 -3.601,-1.351 -4.952,-0.676 -1.35,0.676 -1.125,-0.9 -2.25,1.8 -1.125,2.7 -2.251,5.628 -3.602,6.078 -1.351,0.45 -4.051,1.801 -4.051,1.801 0,0 -3.376,-0.225 -4.502,-0.45 -1.126002,-0.225 -5.852002,-2.701 -6.752002,-4.276 -0.9,-1.576 -1.35,-4.953 -1.35,-6.527 0,-1.576 2.475,-6.302 2.25,-7.428 -0.225,-1.126 2.477,-5.627 2.251,-6.303 -0.226,-0.676 0.45,-2.926 1.125,-3.826 0.675,-0.9 4.052002,-2.026 4.952002,-2.926 0.9,-0.9 2.476,-2.025 4.051,-2.476 1.575,-0.451 2.927,-0.9 4.052,-0.9 1.125,0 4.051,-2.476 4.501,0 0.45,2.476 2.477,1.575 3.602,1.8 1.125,0.225 1.351,1.351 3.151,-1.575 1.8,-2.926 3.601,-3.827 3.601,-3.152 0,0.676 2.926,-0.224 3.376,0.451 0.45,0.675 1.351,-0.451 2.926,0.9 1.575,1.351 3.826,1.576 3.601,2.25 -0.225,0.675 0.9,0.675 0.9,1.351 0,0.676 0.901,-1.576 0.901,2.475 0,4.051 1.125,6.528 1.125,6.528 0,0 1.575,3.377 2.25,2.701 0.675,-0.676 2.025,-2.475 2.025,-2.475 0,0 2.251,-1.351 0.676,-6.078 -1.576,-4.726 -0.45,-6.077 -0.9,-7.653 -0.45,-1.576 -0.451,-2.477 2.25,-4.502 2.701,-2.025 9.228,-6.527 10.804,-7.427 1.576,-0.9 5.176,-3.376 5.176,-3.376 0,0 1.35,-0.675 1.576,-2.476 0.226,-1.801 4.501,-4.952 4.727,-5.852 0.226,-0.9 3.152,-3.15 3.152,-3.15 0,0 3.15,-1.802 2.925,-2.926 -0.225,-1.125 4.052,-3.15 4.727,-3.15 0.675,0 4.277,1.124 4.277,-0.902 0,-2.025 0,-2.476 2.251,-4.276 2.251,-1.8 5.176,-4.501998 6.302,-4.501998 1.126,0 4.952,-2.024 6.527,-2.475 1.575,-0.451 6.528,-2.702 2.026,0 -4.502,2.702 -1.576,1.125 -2.476,3.376 -0.9,2.250998 -1.576,5.176998 2.701,1.799998 4.277,-3.376998 4.051,-4.051998 5.627,-4.275998 1.576,-0.225 0.45,0.675 3.826,-0.451 3.376,-1.126 3.602,-1.575 3.602,-1.575 0,0 1.576,-1.351 0.675,-2.025 -0.9,-0.676 0.901,-1.576 -2.476,-0.226 -3.377,1.35 -3.151,1.576 -5.402,0.9 -2.251,-0.676 -5.627,-0.451 -3.151,-2.702 2.476,-2.251 5.627,-2.926 3.601,-3.826 -2.025,-0.9 -7.202,0.226 -7.877,0.45 -0.676,0.225 -2.251,-0.225 -3.602,0 -1.351,0.225 -0.9,-1.799 0,-2.25 0.9,-0.451 3.827,-1.802 7.428,-2.702 3.601,-0.9 12.38,-1.125 14.405,-1.125 2.025,0 4.726,0.451 6.302,-0.675 1.576,-1.126 4.727,-2.925 5.177,-3.827 0.45,-0.902 2.251,-2.25 2.251,-2.25 0,0 2.025,-2.026 0.9,-2.926 -1.125,-0.9 -2.251,-2.926 -3.151,-2.476 -0.9,0.45 -0.224,3.152 -2.025,0.225 -1.801,-2.925 -1.576,-3.376 -2.476,-4.051 -0.9,-0.675 -1.801,-0.226 -1.125,-3.376 0.676,-3.15 0.45,-4.502 0.45,-4.502 0,0 0.675,-2.7 0,-2.925 -0.676,-0.226 -1.125,-0.9 -2.25,-0.226 -1.126,0.675 -7.428,3.827 -8.778,4.502 -1.351,0.675 -3.152,-2.701 -2.477,-4.276 0.676,-1.577 0.225,-0.676 -0.675,-2.926 -0.9,-2.25 -4.501,-2.702 -5.852,-2.702 -1.351,0 -4.501,-2.026 -5.402,-0.675 -0.901,1.351 -5.626,5.626 -6.528,6.077 -0.902,0.451 -2.25,-3.826 -2.925,3.151 -0.676,6.979 2.476,9.004 -1.125,9.454 -3.601,0.45 -6.753,2.475 -6.753,2.475 0,0 -2.925,0.226 -2.925,2.026 0,1.8 -1.125,6.077 -2.477,6.527 -1.352,0.45 -4.727,-0.224 -5.852,-1.575 -1.125,-1.351 0.225,-6.302 0.225,-6.302 l 2.026,-2.026 c 0,0 -14.405,-2.25 -14.181,-3.151 0.226,-0.9 -4.276,-2.475 -4.726,-3.826 -0.45,-1.351 -0.676,-4.277 -0.225,-5.402 0.451,-1.125 6.527,-6.527 9.678,-7.652 3.151,-1.125 8.553,-3.601 10.129,-4.052 1.576,-0.451 4.276,-0.225 5.177,-1.35 0.901,-1.125 1.125,-3.151 1.125,-3.151 0,0 -0.45,-3.152 0.45,-2.702 0.9,0.45 2.476,1.126 2.701,1.801 0.225,0.675 0.226,2.251 1.801,0.449 1.575,-1.802 3.602,-2.476 5.402,-3.375 1.8,-0.899 4.501,-0.675 6.078,-1.575 1.577,-0.9 4.276,-1.801 4.501,-4.052 0.225,-2.251 -0.675,-1.575 -1.801,-1.801 -1.125,-0.224 0.45,0.226 -3.376,2.026 -3.826,1.8 -2.701,0.45 -5.402,1.8 -2.701,1.35 -2.927,1.576 -3.151,0.451 -0.226,-1.126 0.45,-2.926 0.45,-2.926 0,0 0.226,-0.226 -1.35,-0.675 -1.576,-0.449 -1.576,0.225 -1.801,-1.8 -0.225,-2.026 1.125,-4.952 -1.125,-4.052 -2.25,0.9 -4.276,-0.675 -5.852,3.826 -1.576,4.501 -6.978,9.229 -8.329,8.103 -1.351,-1.126 -1.575,-1.351 -2.701,-1.351 -1.126,0 -2.701,-1.35 -4.727,-1.575 -2.026,-0.225 -8.104,-0.225 -9.678,0 -1.576,0.226 -3.376,-0.9 -4.728,0.451 -1.352,1.351 -3.375,3.151 -3.375,3.827 0,0.676 -2.026,-2.477 -2.701,-2.251 -0.675,0.226 -2.477,-0.9 -4.501,-0.9 -2.026,0 -3.377,-1.126 -4.051,-1.126 -0.675,0 0.674,-1.801 0,-2.026 -0.675,-0.224 -15.307,-0.675 -15.307,-0.675 0,0 -4.726,-1.8 -6.526,-1.575 -1.8,0.225 -6.752,0.449 -10.580002,1.125 -3.828,0.676 -9.454,2.926 -11.254,3.151 -1.801,0.226 -5.852,0.226 -6.527,-0.9 -0.676,-1.125 0.225,-0.9 -0.676,-1.125 -0.901,-0.225 -0.224,-0.675 -2.25,-2.25 -2.026,-1.575 0.901,-2.926 -3.151,-2.926 -4.052,0 -6.527,-0.226 -10.128,0 -3.601,0.226 -11.029,2.025 -11.929,1.8 -0.9,-0.225 -8.103,1.126 -9.229,0.451 -1.125,-0.676 -6.753,2.475 -7.877,2.25 -1.125,-0.225 -5.402,0.226 -6.527,0.901 -1.125,0.675 -6.528,2.025 -4.727,3.151 1.801,1.126 1.575,2.25 1.8,2.926 0.225,0.676 -1.8,2.25 -1.8,2.25 0,0 -0.451,0 -2.926,-0.9 -2.475,-0.9 -5.177,-1.35 -6.303,-0.675 -1.126,0.675 -3.151,2.027 -2.701,2.927 0.45,0.9 3.601,2.926 4.052,2.25 0.451,-0.676 1.576,-2.025 2.926,-1.8 1.351,0.226 3.377,-0.9 1.576,1.351 -1.801,2.251 -3.377,3.376 -4.502,3.602 -1.125,0.224 -3.826,0.449 -6.302,0.675 -2.476,0.226 -2.252,-0.9 -4.502,1.351 -2.25,2.251 -3.151,0.9 -3.601,3.376 -0.45,2.476 -0.89999997,2.475 0,3.151 0.9,0.676 -1.80099997,0.9 0.225,1.575 2.025,0.676 4.501,1.351 4.276,2.025 -0.226,0.676 2.251,-0.899 0.9,0.9 -1.351,1.799 -2.25,3.376 0.45,1.576 2.7,-1.8 4.276,-0.451 6.527,-1.576 2.251,-1.125 4.502,-1.35 5.852,-2.25 1.35,-0.9 2.026,-2.25 4.052,-2.927 2.026,-0.677 0.675,0.226 0.9,1.351 0.225,1.125 0,1.35 1.351,0.449 1.351,-0.901 1.35,-0.224 3.151,-1.35 1.801,-1.126 3.826,-2.251 5.177,-1.576 1.35,0.676 1.8,0.676 2.701,0.676 0.901,0 -1.125,-0.226 0.9,0 2.026,0.224 -0.9,-0.676 5.852,0.9 6.752,1.576 8.554,0.45 9.003,2.926 0.449,2.476 1.351,-0.226 2.476,1.35 1.125,1.576 1.801,0.226 2.476,2.926 0.675,2.7 0,10.129 -0.45,11.029 -0.45,0.9 -0.675,0.9 -0.45,2.926 0.225,2.025 2.926,11.705 2.026,12.379 -0.9,0.674 -2.926,0.9 -2.926,0.9 l -1.125,4.051 c -1.767009,3.67269 -2.689517,5.05952 -4.788446,7.97588" />
    <path
       style="opacity:1;fill:none;stroke:#000000;stroke-width:3;stroke-miterlimit:4;stroke-dasharray:none;stroke-opacity:1"
       id="path20"
       d="m 335.95408,38.1085 c -2.025,0 -3.49039,1.151822 -4.84139,1.826822 -1.351,0.675 2.364,1.688 -4.727,3.714 -7.091,2.026 -8.779,1.689 -10.804,4.389 -2.025,2.7 -1.351,3.04 -2.701,4.728 -1.35,1.688 -5.402,8.441 -7.428,6.753 -2.025,-1.688 -3.039,-1.351 -4.727,-3.039 -1.688,-1.688 -2.701,-4.051 -3.714,-5.402 -1.013,-1.351 -1.351,-4.727 -1.688,-6.753 -0.337,-2.026 -3.377,-6.752 0,-6.077 3.376,0.675 5.402,0.338 6.415,-0.337 1.013,-0.675 2.026,-3.039 2.026,-3.039 0,0 -0.337,-3.714 -1.351,-5.74 -1.014,-2.026 -0.337,-3.714 -2.025,-5.739 -1.688,-2.026 -1.688,-1.688 -4.052,-3.714 -2.364,-2.026 -1.688,-3.039 -5.402,-3.376 -3.714,-0.337 -4.727,-1.351 -6.078,-1.013 -1.351,0.338 -5.739,-2.364 -1.013,-2.701 4.726,-0.337 9.116,0.337 9.116,0.337 0,0 6.077,-2.701 4.052,-3.0380002 -2.025,-0.338 3.038,-3.377 -1.688,-2.364 -4.726,1.013 -10.128,2.364 -11.479,2.7010002 -1.351,0.337 -4.727,0.675 -8.103,1.688 -3.376,1.013 -7.428,0.676 -9.453,3.039 -2.026,2.363 0,2.701 -2.026,2.363 -2.025,-0.337 1.688,-2.363 -3.038,0 -4.726,2.363 -3.376,2.026 -5.739,1.351 -2.364,-0.675 -4.052,-1.688 -4.052,-1.688 0,0 3.04,-0.338 -1.35,-0.675 -4.39,-0.337 -4.389,-0.337 -6.077,-2.364 -1.688,-2.027 -0.675,-2.026 0.337,-2.701 1.012,-0.675 1.689,-2.0270002 1.689,-2.0270002 l 13.505,-1.688 c 0,0 4.726,0 7.09,-1.688 2.364,-1.688 0,-1.688 7.09,-3.0380004 7.09,-1.35 5.065,-2.02599996 8.779,-1.351 3.713,0.676 4.726,0.676 8.778,1.351 4.051,0.6750004 5.064,-0.337 8.777,0.6750004 3.713,1.012 5.402,0.675 8.441,0.675 h 9.453 c 4.727,0 9.116,-2.7010004 10.804,-1.0130004 1.688,1.6880004 2.701,1.0130004 8.441,1.6880004 5.74,0.675 8.103,-0.676 10.466,0 2.363,0.676 6.416,-0.337 11.142,0 4.726,0.337 7.09,-0.337 8.778,-0.337 1.688,0 3.375,-2.3640004 5.739,-0.338 2.364,2.026 5.402,-0.675 5.739,2.026 0.337,2.701 4.727,0.675 0.338,2.701 -4.389,2.0260002 -3.714,1.6880002 -6.753,4.3890002 -3.039,2.701 2.026,5.064 -4.389,7.428 -6.415,2.364 -7.428,-1.351 -9.116,2.701 -1.688,4.052 0,5.064 -0.337,7.09 -0.338,2.025 -1.013,2.363 -3.039,4.051 -2.025,1.688 -2.025,0 -6.752,1.013 -4.727,1.013 -6.52099,1.709885 -8.54599,1.709885" />
    <path
       style="opacity:1;fill:none;stroke:#000000;stroke-width:3;stroke-miterlimit:4;stroke-dasharray:none;stroke-opacity:1"
       id="path4"
       d="m 392.89078,246.09659 c 0.676,0.901 1.30716,1.33078 1.53016,2.90578 0.226,1.575 0.676,2.475 1.577,4.501 0.901,2.026 2.025,2.251 2.25,4.503 0.225,2.252 0.675,2.251 0.45,3.825 -0.225,1.576 -0.9,1.801 -0.225,2.926 0.675,1.125 1.574,3.152 1.351,3.827 -0.225,0.675 -0.676,3.601 -0.676,3.601 l -0.45,1.351 -2.025,3.828 -1.351,2.024 c -0.45,1.575 -1.35,3.151 -1.125,5.402 0.224,2.251 -1.125,2.25 0.675,4.5 1.8,2.25 2.7,4.728 3.826,6.754 1.126,2.025 1.801,4.051 2.025,5.401 0.226,1.351 1.126,1.802 1.576,3.602 0.45,1.8 0.675,2.7 0.675,3.826 0,1.126 -0.226,4.052 0.226,4.727 0.452,0.675 0.675,2.702 0.9,3.602 0.225,0.901 -0.676,1.126 0.675,2.702 1.351,1.576 2.251,2.475 3.151,3.601 0.9,1.126 0.675,0.675 1.351,2.251 0.676,1.576 1.575,2.477 1.801,3.826 0.226,1.349 0.449,4.726 1.125,6.302 0.676,1.576 1.575,3.152 1.575,3.152 0,0 2.477,1.575 3.377,1.35 0.899,-0.225 2.701,-2.249 4.052,-1.575 1.351,0.675 2.476,0 3.601,0 1.125,0 2.251,-1.351 3.377,-1.351 1.126,0 2.7,-1.801 3.602,-1.35 0.902,0.451 2.024,-0.452 3.15,-1.577 1.126,-1.124 1.801,-2.024 3.826,-3.825 2.025,-1.801 1.801,-1.802 3.151,-2.927 1.35,-1.125 2.702,-3.602 4.277,-4.052 1.575,-0.45 2.025,-2.024 2.475,-3.15 0.45,-1.126 0.675,-1.801 1.351,-2.702 0.676,-0.901 0.225,0.228 1.351,-2.7 1.126,-2.928 2.478,-4.051 3.603,-4.727 1.125,-0.676 1.8,-2.025 2.475,-2.251 0.675,-0.226 1.801,0.675 1.351,-1.351 -0.449,-2.025 0,-4.951 -0.449,-5.626 -0.449,-0.675 -1.127,1.574 -0.901,-1.803 0.226,-3.377 2.701,-6.752 2.701,-6.752 0,0 3.376,-4.276 4.502,-4.951 1.126,-0.675 1.35,-1.35 2.927,-2.251 1.574,-0.899 4.951,-3.15 4.951,-4.276 0,-1.126 1.351,-4.052 1.351,-4.728 0,-0.676 0,-1.35 -0.449,-5.177 -0.449,-3.827 0.449,-2.926 -0.901,-6.527 -1.35,-3.601 -1.577,-8.103 -2.476,-9.228 -0.899,-1.125 -0.451,-4.053 -0.451,-4.952 0,-0.899 1.577,-3.151 2.252,-4.051 0.675,-0.901 3.601,-4.503 3.601,-4.503 0,0 4.501,-5.176 6.077,-7.651 1.576,-2.477 3.151,-4.727 4.276,-5.627 1.125,-0.9 3.827,-2.928 5.402,-5.178 1.575,-2.25 4.727,-6.526 4.953,-7.203 0.224,-0.674 2.024,-2.925 2.024,-2.925 0,0 2.476,-2.927 2.927,-4.502 0.449,-1.576 2.699,-10.354 2.249,-9.904 -0.45,0.45 -3.15,0.9 -4.051,1.125 -0.899,0.226 1.352,1.125 -5.177,0.676 -6.529,-0.449 -9.902,0.675 -9.902,0.675 -2.027,-0.451 -3.602,1.8 -4.278,-1.351 -0.676,-3.151 -1.126,-4.951 -2.475,-7.202 -1.349,-2.251 -2.252,-3.151 -4.276,-6.078 -2.025,-2.925 -1.802,-1.576 -3.603,-3.825 -1.801,-2.249 -2.251,-1.577 -3.376,-4.502 -1.125,-2.926 -2.025,-1.8 -3.376,-5.852 -1.351,-4.052 -2.251,-4.503 -2.926,-6.753 -0.675,-2.25 -1.575,-2.927 -2.026,-4.952 -0.45,-2.026 -5.626,-12.379 -6.302,-13.055 -0.676,-0.674 -1.801,-4.277 -1.576,-3.601 0.226,0.675 3.377,2.926 3.377,2.926 0,0 1.8,-0.676 2.476,-0.676 0.676,0 3.376,2.477 3.376,3.376 0,0.899 4.729,5.178 5.853,8.329 1.125,3.151 2.478,5.402 2.701,6.302 0.223,0.9 2.476,4.502 3.377,5.853 0.901,1.351 3.825,4.051 4.275,5.402 0.45,1.351 4.728,5.852 4.728,8.778 0,2.926 2.024,6.752 2.25,7.652 0.226,0.9 4.276,2.027 4.276,2.027 l 5.403,-1.351 c 0,0 8.102,-5.178 9.003,-5.178 0.901,0 8.104,-3.376 8.104,-3.376 0,0 2.925,-2.7 4.95,-4.275 2.025,-1.575 4.277,-4.501 4.728,-5.853 0.451,-1.352 1.35,-1.575 3.15,-3.602 1.8,-2.027 4.277,-4.051 2.702,-5.402 -1.575,-1.351 -2.477,-0.9 -4.727,-3.151 -2.25,-2.251 -2.026,-1.8 -3.602,-4.727 -1.576,-2.925 0.225,-6.302 -3.152,-2.925 -3.377,3.377 -2.025,4.276 -5.402,4.953 -3.375,0.674 -4.727,2.925 -6.302,0.674 -1.575,-2.251 -3.15,-0.9 -4.052,-4.277 -0.902,-3.377 -1.576,-3.602 -1.8,-4.951 -0.224,-1.349 0,-1.351 -1.801,-4.728 -1.801,-3.377 -0.45,-8.553 0.675,-5.627 1.125,2.926 2.926,3.376 5.853,5.402 2.925,2.025 4.277,3.602 6.977,3.827 2.701,0.224 4.952,0 5.402,0.449 0.45,0.449 0.9,-0.224 2.026,0.225 1.126,0.449 1.574,-0.674 2.025,1.125 0.451,1.799 2.926,2.026 4.051,3.151 1.125,1.125 1.126,0.676 4.053,1.125 2.927,0.449 6.979,0.451 6.979,0.451 l 4.275,-0.226 4.952,0.449 c 0,0 3.603,2.026 4.502,2.026 0.899,0 1.125,2.477 3.376,3.827 2.251,1.35 2.701,1.575 4.051,3.151 1.35,1.576 1.126,2.251 2.926,3.826 1.8,1.575 4.729,-0.224 5.179,-0.898 0.448,-0.676 2.699,-1.801 2.251,0 -0.448,1.801 2.249,1.124 1.574,5.402 -0.675,4.278 -1.126,3.15 0,6.077 1.126,2.927 6.077,11.929 6.303,14.63 0.226,2.701 1.575,1.801 1.8,4.278 0.225,2.477 1.575,3.375 1.575,5.176 0,1.801 1.577,2.25 1.801,3.602 0.227,1.351 2.702,0.224 3.377,0 0.676,-0.226 3.826,-3.152 3.826,-3.152 0,0 1.353,-0.449 1.126,-2.701 -0.227,-2.252 0,-1.8 0,-5.176 0,-3.376 -1.35,-3.376 -0.675,-6.751 0.675,-3.375 2.475,-5.403 2.926,-6.978 0.451,-1.575 2.251,-4.276 3.15,-4.502 0.899,-0.226 5.853,-2.7 6.979,-4.277 1.126,-1.577 2.926,-3.376 4.727,-5.176 1.801,-1.8 4.951,-4.051 5.627,-3.376 0.676,0.675 0.45,0.45 1.576,0.45 1.126,0 3.151,0.901 4.726,1.126 1.576,0.225 4.728,4.051 5.403,6.077 0.675,2.026 0.225,1.575 2.701,4.502 2.476,2.925 4.727,1.124 4.727,4.726 0,3.602 0,3.376 1.126,4.727 1.126,1.351 2.475,-2.476 3.825,-2.025 1.35,0.451 1.575,-0.45 2.7,3.151 1.125,3.601 1.8,3.602 2.027,7.203 0.224,3.601 -0.226,0.225 -0.226,3.15 0,2.927 -0.226,3.152 0.226,5.852 0.452,2.7 2.023,3.603 1.8,4.053 0,0 1.35,-3.826 0.899,-6.528 -0.451,-2.702 0,-6.526 1.126,-7.651 1.126,-1.125 2.252,-2.251 3.151,0.675 0.901,2.925 1.351,0.675 3.376,4.051 2.027,3.377 3.827,2.7 4.052,4.276 0.225,1.576 1.353,1.802 2.926,3.151 1.576,1.351 2.926,-0.224 4.727,-1.575 1.801,-1.351 6.752,-6.303 6.979,-8.329 0.224,-2.025 2.25,-1.576 -1.352,-6.751 -3.602,-5.175 -3.602,-6.978 -7.428,-10.129 -3.824,-3.151 -6.076,-3.376 -3.149,-7.428 2.927,-4.052 4.277,-6.752 6.077,-5.626 1.8,1.126 4.95,0.899 4.95,5.402 0,4.503 -0.9,9.453 2.251,4.051 3.151,-5.402 4.728,-8.553 3.826,-7.651 -0.902,0.902 2.026,-1.801 2.026,-1.801 0,0 0.226,-2.026 4.053,-2.926 3.827,-0.9 4.95,-1.351 6.302,-2.026 1.35,-0.676 5.177,-5.178 5.852,-7.203 0.675,-2.025 2.476,-5.627 2.026,-7.202 -0.45,-1.575 -2.702,-9.228 -3.152,-9.004 -0.449,0.226 -0.224,0.226 -3.149,-2.925 -2.928,-3.151 -4.953,-5.402 -5.403,-6.753 -0.45,-1.351 -1.576,-1.576 -0.226,-3.376 1.35,-1.8 2.027,-1.575 2.252,-3.151 0.225,-1.576 2.024,-2.926 -1.352,-1.8 -3.376,1.126 -0.9,0.451 -3.826,0.226 -2.926,-0.225 -10.578,1.575 -6.751,-3.151 3.827,-4.726 4.949,-7.652 5.625,-7.652 0.676,0 4.053,-3.827 4.277,-0.226 0.226,3.601 1.575,2.7 1.801,4.951 0.226,2.251 4.727,-2.475 4.727,-2.475 0,0 1.575,0.45 2.7,1.575 1.125,1.125 1.126,4.727 1.126,4.727 0,0 -0.9,-1.126 1.576,0.675 2.476,1.801 5.176,0.9 5.176,4.727 0,3.827 0,4.052 1.576,4.952 1.576,0.9 3.15,0.451 4.503,-0.675 1.353,-1.126 3.6,-5.177 3.6,-5.177 0,0 0.225,-1.576 -3.376,-3.827 -3.601,-2.251 -5.852,-3.825 -7.201,-4.951 -1.349,-1.126 -0.901,-4.501 0.448,-5.853 1.349,-1.352 2.026,-2.026 1.576,-3.826 -0.45,-1.8 0.676,-3.152 4.052,-2.927 3.376,0.225 4.051,-0.224 4.051,-0.224 0,0 0.677,0.449 0.677,-0.901 0,-1.349998 4.275,-7.652998 3.149,-7.652998 -1.126,0 0.228,-1.575 -0.45,-4.051 -0.678,-2.476 2.251,-6.302 -0.224,-8.103 -2.475,-1.801 -3.152,-2.702 -4.727,-5.402 -1.575,-2.7 -1.352,-3.151 -7.203,-3.827 -5.851,-0.676 -8.553,1.351 -9.904,-0.449 -1.351,-1.8 -2.025,2.7 -2.925,-2.702 -0.9,-5.402 1.351,-9.004 1.351,-9.004 0,0 3.601,-2.25 4.5,-3.826 0.899,-1.576 4.501,-2.251 7.43,-1.125 2.929,1.126 7.201,0.9 10.804,1.577 3.601,0.674 3.376,2.925 5.177,0 1.8,-2.928 0,-4.277 1.35,-5.853 1.35,-1.576 2.926,-4.052 4.051,-2.477 1.125,1.577 3.379,3.151 5.18,1.125 1.8,-2.025 2.475,-2.25 2.475,-2.25 l 0.898,0.901 c 0,0 2.026,-1.127 2.026,0.898 0,2.027 2.027,4.278 0.901,5.853 -1.126,1.575 -2.7,1.351 -2.7,5.177 0,3.826 0,3.152 2.474,6.304 2.477,3.15 4.052,0.449 4.502,3.826 0.45,3.377 0.899,2.702 3.377,4.952 2.478,2.25 2.024,2.25 3.826,3.601 1.802,1.351 2.702,2.702 2.702,0.451 0,-2.251 0.225,-3.376 0,-5.402 -0.227,-2.025 1.801,-3.602 0.448,-6.978 -1.353,-3.376 -0.224,-3.151 -2.925,-5.627 -2.701,-2.476 -4.503,0.451 -5.401,-3.151 -0.898,-3.602 4.275,-5.177 5.627,-5.627 1.352,-0.45 3.374,-3.151 3.824,-1.35 0.45,1.801 -3.375,8.328 3.153,1.35 6.528,-6.978 3.601,-4.051 3.601,-4.051 0,0 3.376,-0.45 4.051,0 0.674,0.451 2.478,-2.026 1.8,-1.8 -0.678,0.226 -7.2,-3.602 -7.2,-3.602 l -4.729,-2.7 c 0,0 1.577,-1.126 2.702,-0.9 1.125,0.226 1.352,-2.251 2.478,-2.477 1.126,-0.226 8.777,1.577 10.354,2.477 1.577,0.9 7.201,1.125 6.525,0.675 -0.676,-0.45 -4.275,-3.151 -4.501,-4.052 -0.224,-0.9 -8.103,-2.701 -10.578,-2.476 -2.477,0.224 -4.726,0.899 -6.752,0.224 -2.026,-0.675 -4.952,-2.476 -6.528,-2.476 -1.576,0 -21.382,-3.826 -22.282,-3.601 -0.9,0.225 -2.252,4.501 -2.927,3.826 -0.675,-0.675 -1.8,-0.676 -4.953,-1.576 -3.153,-0.9 -7.427,-1.576 -13.055,-2.025 -5.628,-0.449 -9.451,0.45 -11.027,-1.351 -1.576,-1.801 -4.951,-1.125 -8.778,-1.351 -3.826,-0.224 -8.328,0 -10.354,0 -2.026,0 -6.751,-0.224 -7.877,-0.45 -1.126,-0.226 -2.476,-1.801 -3.826,-2.025 -1.352,-0.226 -1.127,-0.675 -3.827,-1.125 -2.7,-0.45 -2.476,-3.376 -3.376,-0.901 -0.9,2.477 -0.451,1.801 -1.801,2.701 -1.35,0.9 -2.701,2.701 -3.602,2.701 -0.901,0 -4.5,0.225 -5.177,-0.225 -0.677,-0.45 -1.801,-0.9 -4.052,-0.9 -2.251,0 -2.251,0.224 -5.177,-0.226 -2.926,-0.45 -5.177,-0.226 -7.878,-1.575 -2.701,-1.349 -2.701,-2.251 -4.952,-2.026 -2.251,0.225 -2.249,-0.45 -5.402,-0.45 -3.153,0 -6.976,1.801 -9.003,2.026 -2.024,0.225 -6.526,-0.226 -8.102,-0.901 -1.576,-0.675 -2.026,-2.25 -7.879,-1.576 -5.852,0.676 -9.228,0.676 -8.103,-1.125 1.125,-1.801 2.476,-3.601 3.151,-3.826 0.676,-0.225 2.25,-1.35 1.124,-1.8 -1.124,-0.451 -2.25,-1.125 -4.95,-1.351 -2.7,-0.226 -2.478,0.9 -6.528,0.45 -4.05,-0.45 2.251,-1.5750002 -6.076,-1.35 -8.328,0.226 -10.354,0.9 -11.254,0.9 -0.9,0 -2.027,-1.8000002 -4.277,0.9 m -8.24959,3.949531 c -4.5,0.225 -6.38141,0.101469 -10.65641,1.676469 -4.275,1.575 -6.979,-0.45 -6.078,3.151 0.901,3.601 2.026,4.952 2.026,5.627 0,0.675 -2.026,5.177 -4.501,2.476 -2.475,-2.701 -6.979,-13.28 -4.953,-6.077 2.025,7.202 6.526,9.679 2.251,10.804 -4.275,1.125 -3.828,-0.45 -4.503,-0.901 -0.674,-0.45 0,-3.601 -0.225,-5.402 -0.225,-1.801 -0.675,-2.926 -1.575,-3.826 -0.9,-0.9 -0.676,-2.251 -2.476,-2.701 -1.8,-0.45 -0.225,-1.351 -3.151,-1.351 -2.926,0 -5.401,-1.801 -4.726,2.251 0.675,4.052 1.349,1.351 3.149,5.177 1.8,3.826 5.177,1.125 2.702,3.826 -2.476,2.701 -9.003,1.801 -10.579,0.676 -1.576,-1.125 -1.125,0.45 -4.053,-1.576 -2.928,-2.026 -2.024,-3.602 -5.4,-2.026 -3.376,1.576 -4.502,4.502 -5.853,3.376 -1.351,-1.126 -4.501,1.575 -5.627,0.226 -1.126,-1.349 -5.628,-1.351 -6.527,0 -0.899,1.351 -3.602,1.125 -7.428,2.926 -3.826,1.801 -2.702,0.224 -7.428,4.051 -4.726,3.827 -7.429,6.977 -9.003,4.501 -1.576,-2.475 -10.13,-6.752 -6.753,-7.428 3.377,-0.676 4.952,-2.025 6.753,-0.45 1.801,1.575 4.728,1.126 5.176,0 0.448,-1.126 2.477,-2.251 -0.225,-3.601 -2.702,-1.35 -2.926,-0.451 -7.202,-2.026 -4.277,-1.576 0,-1.125 -5.853,-2.026 -5.853,-0.901 -8.329,-1.35 -9.904,-1.8 -1.575,-0.45 -3.826,0 -6.076,-0.225 -2.25,-0.225 -3.826,-0.675 -5.853,-0.45 -2.025,0.225 -3.15,-0.225 -5.852,1.801 -2.702,2.026 -4.728,2.926 -6.528,4.501 -1.8,1.575 -6.526,4.727 -7.877,5.853 -1.351,1.126 -6.078,4.726 -6.528,6.077 -0.45,1.351 0.45,2.476 -1.351,3.376 -1.801,0.9 -3.601,0.9 -4.952,1.125 -1.351,0.225 0,-2.026 -1.351,0.225 -1.351,2.251 -0.9,10.354 0.225,9.228 1.125,-1.126 0.45,-4.726 5.402,-1.349 4.952,3.377 8.104,2.925 7.878,6.076 -0.226,3.151 3.376,2.926 3.826,3.602 0.45,0.674 2.701,-0.901 2.701,-0.901 0,0 4.952,-3.151 4.952,-4.726 0,-1.575 3.151,-5.177 3.151,-5.177 0,0 -2.252,-1.125 -2.252,-3.376 0,-2.251 0.677,-2.927 1.126,-5.178 0.449,-2.251 -2.476,10e-4 4.277,-4.277 6.753,-4.278 7.202,-1.349 7.202,-1.349 0,0 0.899,0.9 -0.226,2.25 -1.125,1.35 -3.151,4.953 -3.601,5.402 -0.45,0.449 2.026,4.052 3.15,4.052 1.126,0 3.377,-0.901 4.728,-0.676 1.351,0.226 3.601,-0.674 4.276,-0.224 0.676,0.45 2.251,1.8 1.125,2.926 -1.126,1.126 -3.602,2.475 -5.401,2.026 -1.799,-0.449 -4.503,-3.602 -2.927,0.9 1.576,4.502 -0.225,5.627 -1.576,5.402 -1.349,-0.225 -4.276,-2.475 -3.826,0.901 0.45,3.376 -2.925,5.626 -3.601,5.626 -0.676,0 -2.025,-0.225 -2.025,-0.225 0,0 -2.027,-0.226 -3.151,-0.226 -1.126,0 -3.377,1.125 -4.052,2.026 -0.676,0.9 -1.576,0.226 -2.701,0.226 -1.125,0 0,-1.351 -2.251,-1.801 -2.251,-0.45 -3.601,-0.9 -4.951,0 -1.35,0.9 -3.376,1.35 -4.277,0.675 -0.901,-0.675 0.451,-2.252 -1.351,-1.35 -1.802,0.902 -3.151,3.376 -3.826,3.602 -0.675,0.224 2.026,0 -0.675,0.224 -2.701,0.226 -3.826,0.902 -5.177,1.351 -1.351,0.449 0.45,3.151 -2.026,4.051 -2.476,0.9 -0.674,-1.125 -3.151,0.9 -2.476,2.027 -2.927,3.827 -3.826,4.052 -0.901,0.226 -0.675,0.675 -2.701,0.9 -2.026,0.225 -1.8,0.45 -2.927,0.675 -1.127,0.225 0.226,0.676 -2.25,0.225 -2.476,-0.451 -4.277,0.451 -3.827,1.351 0.45,0.9 8.778,3.376 2.476,3.151 -6.302,-0.225 -4.276,0.9 -2.926,1.8 1.35,0.9 2.025,1.8 2.701,2.026 0.676,0.226 1.8,2.927 1.8,2.927 0,0 1.801,-0.226 0.676,1.35 -1.125,1.576 0.45,2.026 -0.676,4.051998 -1.126,2.026 -1.125,0.675 -2.025,1.125 -0.9,0.45 -2.251,2.026 -4.728,0.675 -2.477,-1.351 -4.275,-2.026 -7.202,-2.25 -2.926,-0.226 -0.901,-0.674998 -2.926,0.899 -2.026,1.577 -2.476,3.377 -2.25,5.402 0.225,2.025 0.45,4.727 -0.226,6.078 -0.676,1.351 -0.675,2.701 -0.226,4.727 0.451,2.025 1.802,2.927 1.802,2.927 0,0 3.151,0.449 3.826,0.675 0.675,0.226 2.026,-0.45 3.826,0.674 1.801,1.126 3.602,1.577 4.727,0.226 1.125,-1.351 5.627,-2.926 6.979,-4.276 1.352,-1.35 2.25,-1.8 1.575,-3.151 -0.675,-1.351 1.351,-4.727 2.476,-5.402 1.125,-0.675 3.601,-1.351 3.601,-1.351 l 2.701,-4.051 c 0,0 2.251,-2.477 3.376,-2.251 1.125,0.226 7.427,2.477 6.978,-0.449 -0.449,-2.925998 0.45,-3.826998 1.125,-2.701998 0.675,1.125 2.476,0.675 2.476,0.675 0,0 0.9,-0.449 1.575,0.226 0.675,0.673998 1.575,3.601998 2.926,4.275998 1.351,0.676 2.476,1.351 3.377,1.8 0.901,0.449 1.801,0 3.602,1.576 1.801,1.576 3.601,2.477 3.825,3.151 0.227,0.675 1.802,2.251 1.802,2.251 0,0 1.575,0.45 1.125,1.351 -0.45,0.901 -2.7,3.602 -3.826,4.051 -1.126,0.449 -4.051,-0.451 -2.926,0.45 1.124,0.9 2.701,2.026 3.376,1.35 0.676,-0.675 4.951,-5.177 4.951,-5.177 0,0 -0.225,0.225 0,-1.126 0.225,-1.351 0,-2.925 1.126,-2.25 1.125,0.676 1.801,1.576 2.251,0.676 0.45,-0.9 0.9,-0.45 -0.226,-1.125 -1.126,-0.675 -3.826,-4.502 -5.177,-4.727 -1.351,-0.225 -4.728,-2.477 -4.728,-2.477 0,0 -0.674,-0.675 -2.25,-2.475 -1.576,-1.799998 -2.025,-1.350998 -2.477,-2.926998 -0.452,-1.576 -1.801,-3.601 0.676,-3.151 2.477,0.45 4.051,2.025 6.302,3.376 2.251,1.351 1.802,1.799998 3.827,3.150998 2.025,1.351 2.252,2.702 3.826,2.477 1.575,-0.225 3.377,0.9 3.377,2.926 0,2.026 0.449,4.276 0.899,4.727 0.45,0.451 1.8,1.351 2.251,2.251 0.451,0.9 1.351,3.151 2.025,4.051 0.676,0.9 1.351,1.576 2.026,2.702 0.675,1.125 0.9,-0.226 1.575,0.225 0.676,0.45 1.576,0.224 1.576,-0.676 0,-0.9 0.224,-2.476 0.224,-2.476 0,0 3.153,-0.9 2.253,-1.351 -0.9,-0.451 -3.603,-3.151 -3.377,-4.051 0.226,-0.9 0,-2.7 1.124,-2.475 1.126,0.224 2.252,2.25 4.728,0.449 2.476,-1.801 5.402,-2.701 4.501,0 -0.901,2.701 0.227,3.15 0,6.077 -0.224,2.927 0.902,2.026 2.478,3.602 1.576,1.576 2.7,1.802 3.825,2.251 1.125,0.449 2.926,0.226 4.728,0.451 1.802,0.225 2.926,-0.676 4.502,-0.225 1.574,0.45 5.176,-0.226 5.852,0.225 0.676,0.451 3.377,-0.9 3.601,0.675 0.225,1.576 1.126,-0.225 0.451,3.376 -0.675,3.601 -1.576,6.077 -1.576,6.077 -2.476,4.727 -3.376,5.853 -4.502,6.078 -1.124,0.225 -1.8,0.9 -3.825,0.675 -2.026,-0.226 -4.502,0 -7.428,-0.675 -2.926,-0.675 -8.329,0.675 -10.579,-0.676 -2.25,-1.351 -5.402,-0.225 -6.754,-1.8 -1.352,-1.575 -3.6,-1.351 -4.501,-2.251 -0.901,-0.9 -1.35,-3.375 -1.35,0.226 0,3.601 -2.026,3.826 -2.476,5.627 -0.45,1.801 0.674,0.9 -1.802,0.675 -2.476,-0.226 -3.151,1.125 -6.752,-1.575 -3.601,-2.7 -5.402,-2.701 -7.202,-3.827 -1.8,-1.126 -3.602,2.025 -5.402,-1.575 -1.8,-3.6 -4.277,-0.676 -4.502,-3.602 -0.225,-2.927 0,-2.7 0.225,-4.501 0.225,-1.801 2.701,-3.376 1.576,-4.051 -1.125,-0.675 -0.226,-1.801 -1.801,-1.125 -1.575,0.676 -3.826,0.9 -5.627,1.575 -1.801,0.676 4.051,0 -4.727,0.676 -8.778,0.676 -11.255,1.575 -11.255,1.575 0,0 -0.675,-0.45 -1.801,0.45 -1.126,0.9 -2.701,2.251 -4.276,1.576 -1.575,-0.676 -2.476,-0.451 -3.826,-0.225 -1.35,0.226 -2.25,-1.125 -3.826,0 -1.576,1.124 -3.376,1.575 -4.052,1.124 -0.677,-0.456 -1.803,-2.256 -1.803,-2.256 l -3.377,4.501 -2.25,2.251 -4.501,2.475 -0.676,2.026 c 0,0 -1.801,1.801 -1.575,2.927 0.226,1.126 0.226,3.151 0.226,3.151 0,0 -3.151,2.926 -4.502,3.826 -1.351,0.9 -3.152,2.926 -3.152,2.926 0,0 -1.125,1.351 -1.8,1.801 -0.675,0.45 -1.8,1.8 -2.701,3.151 -0.901,1.351 -1.801,2.25 -2.251,2.925 -0.45,0.675 -1.801,2.251 -2.476,4.727 -0.675,2.476 -2.476,5.402 -2.476,5.402 l -0.451,1.125 c 0.226,3.827 0.225,4.502 0.676,5.853 0.451,1.351 0.901,0.899 0.45,3.826 -0.45,2.925 -0.45,4.051 -0.9,5.402 -0.45,1.351 -1.801,3.825 -2.25,4.952 -0.449,1.127 0.9,3.15 0.9,3.15 0,0 0.676,2.927 0.225,3.602 -0.45,0.676 0.225,2.026 0.225,2.026 0,0 2.701,1.575 3.602,2.476 0.901,0.901 2.476,2.251 2.701,2.926 0.225,0.675 2.026,3.827 2.251,4.502 0.225,0.675 2.026,3.15 2.476,3.826 0.45,0.676 2.701,3.152 2.701,3.152 0,0 2.926,2.249 3.602,3.15 0.676,0.901 2.701,1.35 3.375,2.025 0.676,0.675 2.251,0.449 3.151,1.126 0.9,0.677 2.701,-0.451 3.602,0 0.901,0.451 3.377,-0.45 4.052,-0.9 0.675,-0.45 2.25,-2.025 3.376,-1.351 1.126,0.674 1.8,0 2.701,0.225 0.901,0.225 2.25,-0.899 3.15,-0.899 0.9,0 3.151,-0.901 3.826,-0.901 0.675,0 2.927,-1.352 3.828,-1.352 0.901,0 2.025,-0.898 3.15,-0.449 1.125,0.449 0.675,-0.899 2.701,-0.225 2.026,0.674 2.701,0 3.376,0.674 0.676,0.676 1.577,0.002 2.252,0.902 0.675,0.899 1.8,1.574 2.025,2.475 0.225,0.901 1.575,1.802 1.575,1.802 l 1.351,0.224 c 0,0 1.802,-1.35 2.251,-0.449 0.449,0.901 2.476,0.676 2.476,0.676 l 2.025,2.25 0.676,0.9 c 0,0 1.351,3.602 1.125,4.952 -0.226,1.35 -0.225,4.276 -0.9,4.951 -0.675,0.676 -1.125,3.602 -1.125,3.602 0,0 -0.901,0.9 1.125,2.701 2.026,1.801 1.81721,1.81621 2.49221,2.71521" />
    <path
       style="opacity:1;fill:none;stroke:#000000;stroke-width:3;stroke-miterlimit:4;stroke-dasharray:none;stroke-opacity:1"
       id="path8"
       d="m 744.51686,284.91966 c -0.675,-0.675 -0.99392,-0.35629 -1.89492,-0.58229 -0.9,-0.224 -1.575,-2.024 -2.251,-2.024 -0.676,0 -1.801,-1.577 -1.575,-2.477 0.224,-0.9 0.449,-2.925 0.675,-3.826 0.224,-0.9 1.576,-2.927 1.576,-2.927 0,0 0,-1.35 -1.126,-1.35 -1.126,0 -1.351,0 -3.827,-0.226 -2.476,-0.226 -3.149,-0.45 -4.052,-0.45 -0.903,0 0.902,-0.45 -1.575,0.225 -2.477,0.675 -3.601,2.477 -5.177,4.053 -1.573,1.575 -0.224,1.124 -1.573,1.575 -1.349,0.451 -1.126,-1.126 -2.027,1.351 -0.901,2.477 1.82967,5.35588 1.15167,5.80688 -5.18294,0.60712 -4.67851,-2.62806 -6.55467,-5.13188 -0.901,-1.125 -1.8,-2.7 -3.149,-2.025 -1.349,0.675 -2.479,1.126 -3.377,2.251 -0.898,1.125 -0.901,2.025 -1.576,2.925 -0.675,0.9 -2.475,0.9 -2.701,1.801 -0.226,0.901 -0.225,3.151 -0.899,3.376 -0.675,0.226 -0.9,-0.898 -1.575,-1.124 -0.675,-0.225 -0.451,-2.026 -0.9,-0.9 -0.449,1.126 -0.9,0.899 -1.575,2.7 -0.677,1.801 -0.901,3.377 -1.576,3.602 -0.675,0.225 0,0.45 -2.027,1.576 -2.024,1.125 -2.475,1.125 -5.4,2.476 -2.925,1.351 -2.25,1.351 -4.276,1.575 -2.025,0.226 -2.477,0.901 -3.827,1.126 -1.352,0.225 -2.25,0.449 -3.602,1.8 -1.352,1.351 -2.475,1.8 -3.375,2.026 -0.9,0.226 -1.805,1.127 -1.805,1.127 -0.675,0.899 -1.125,10.579 -1.575,11.704 -0.45,1.125 -1.351,6.978 -0.899,8.327 0.452,1.349 1.124,6.303 0.675,7.879 -0.449,1.576 0.225,6.527 -0.902,6.302 -1.124,-0.226 -1.573,0.226 -1.573,0.9 0,0.676 1.573,2.025 1.573,2.025 0,0 2.703,10e-4 3.828,-0.225 1.125,-0.226 3.376,-1.351 5.177,-1.351 1.801,0 2.927,-1.351 4.501,-1.351 1.576,0 4.953,-1.124 5.853,-0.675 0.9,0.449 2.25,-2.701 3.826,-2.025 1.576,0.676 4.953,-1.576 6.528,-1.576 1.575,0 2.251,-2.477 4.052,-2.025 1.801,0.452 5.177,-0.9 6.753,-0.227 1.573,0.677 4.051,-2.25 5.176,0 1.125,2.25 4.503,3.152 4.503,4.277 0,1.125 -0.228,3.602 -0.228,3.602 l 2.702,-0.226 c 0,0 4.275,-2.701 4.952,-2.701 0.677,0 2.251,-2.25 2.251,-1.124 0,1.124 -1.352,3.602 -1.801,4.726 -0.45,1.126 0.449,2.477 0.449,2.477 0,0 2.253,1.125 1.352,3.15 -0.901,2.026 0.224,1.577 0,3.151 -0.226,1.576 0,0.9 0.898,1.8 0.898,0.9 2.479,2.479 3.828,2.252 1.349,-0.227 1.8,-1.575 2.926,-0.9 1.125,0.675 3.375,0.225 4.05,1.126 0.678,0.899 -4.275,3.15 4.278,-0.675 8.553,-3.825 9.451,-4.728 10.577,-6.079 1.126,-1.351 2.479,-2.7 3.377,-3.601 0.898,-0.901 0.227,-0.675 2.926,-2.701 2.701,-2.025 2.701,-1.125 5.179,-4.952 2.478,-3.827 4.275,-5.176 4.727,-5.852 0.452,-0.676 1.35,-0.9 1.575,-3.603 0.225,-2.7 2.025,-5.176 2.025,-6.076 0,-0.9 0.675,-2.249 0.45,-3.826 -0.225,-1.577 0.901,-3.825 -0.45,-6.076 -1.351,-2.251 0.675,-3.15 -1.351,-4.053 -2.026,-0.903 -3.376,-0.449 -3.826,-2.025 -0.45,-1.576 -2.252,-1.351 -2.927,-5.627 -0.675,-4.276 -3.376,-4.728 -3.376,-4.728 0,0 -2.701,-1.125 -2.026,-1.574 0.675,-0.449 0.901,-3.603 0.677,-4.503 -0.226,-0.9 -0.226,-2.926 -0.9,-4.275 -0.675,-1.352 -1.126,-3.151 -1.801,-4.728 -0.675,-1.577 -1.8,-2.026 -2.251,-3.826 -0.451,-1.8 -1.126,-2.477 -1.35,-2.926 -0.227,-0.45 -0.678,-2.7 -1.126,-0.226 -0.45,2.476 -1.352,7.202 -1.352,7.202 0,0 -1.801,3.828 -2.476,4.953 -0.675,1.124 -1.17767,3.9476 -2.30267,3.7216 -1.125,-0.226 -1.97828,-0.44411 -2.65225,-0.75727" />
    <path
       style="opacity:1;fill:none;stroke:#000000;stroke-width:3;stroke-miterlimit:4;stroke-dasharray:none;stroke-opacity:1"
       id="path14"
       d="m 649.77264,233.76863 c 1.575,2.929 3.9383,6.45274 4.8383,7.12974 0.9,0.677 1.576,2.474 1.802,3.15 0.224,0.675 1.799,2.7 1.799,3.376 0,0.676 0.451,2.476 -0.899,4.051 -1.35,1.575 -2.477,1.801 -2.477,1.801 0,0 -2.701,-1.351 -3.601,-2.701 -0.9,-1.35 -2.025,-2.476 -3.602,-5.176 -1.577,-2.7 -3.376,-5.628 -4.276,-6.978 -0.9,-1.35 -2.251,-2.703 -2.926,-4.052 -0.675,-1.349 -2.476,-5.402 -3.376,-5.853 -0.9,-0.451 -1.126,-1.8 -2.702,-3.376 -1.574,-1.576 -1.35,-2.926 -2.025,-3.826 -0.675,-0.9 -2.25,-2.928 -2.25,-2.928 l 0.675,-0.224 c 0,0 1.125,1.127 2.926,0.901 1.801,-0.226 3.149,3.601 4.277,4.951 1.124,1.351 1.801,2.026 4.276,3.602 2.475,1.575 2.25,-1.351 5.627,3.376" />
    <path
       style="opacity:1;fill:none;stroke:#000000;stroke-width:3;stroke-miterlimit:4;stroke-dasharray:none;stroke-opacity:1"
       id="path10"
       d="m 675.63802,225.96911 c -0.675,2.926 -1.21608,2.55226 -1.89308,2.32626 -0.677,-0.226 1.125,4.276 -2.7,2.477 -3.825,-1.799 -2.475,1.576 -2.926,2.477 -0.451,0.901 0.675,3.376 0.9,4.276 0.227,0.9 0.9,2.476 1.801,3.825 0.901,1.349 1.575,2.926 3.151,2.478 1.576,-0.448 6.526,0 6.526,0 0,0 1.803,0.675 2.927,0.675 1.125,0 1.351,-0.45 2.025,-0.45 0.674,0 2.025,-2.252 1.801,-2.476 -0.225,-0.227 -0.899,-0.901 0.45,-2.252 1.349,-1.351 2.926,-1.8 3.152,-3.376 0.226,-1.576 -0.45,-1.575 0.225,-2.477 0.675,-0.902 2.25,-0.673 1.801,-1.575 -0.449,-0.902 0.449,-0.675 -0.451,-2.477 -0.9,-1.802 -2.026,-2.476 -1.126,-4.727 0.9,-2.251 1.803,-2.701 1.577,-4.051 -0.226,-1.35 1.125,-1.801 -0.451,-3.377 -1.574,-1.574 -2.25,-2.025 -3.376,-2.477 l -1.125,-0.448 c -0.899,1.352 -3.825,5.402 -4.95,5.628 -1.126,0.224 -2.252,1.351 -3.152,1.125 -0.9,-0.226 -1.85364,-0.97487 -2.52864,1.95113" />
    <path
       style="opacity:1;fill:none;stroke:#000000;stroke-width:3;stroke-miterlimit:4;stroke-dasharray:none;stroke-opacity:1"
       id="path12"
       d="m 762.68361,245.59197 c 1.803,1.577 1.32233,0.9384 3.79733,1.8374 2.475,0.899 1.35,-0.45 3.601,2.026 2.251,2.476 1.353,3.15 2.476,4.276 1.125,1.125 2.027,-0.901 1.576,1.8 -0.451,2.701 -3.601,0 1.126,3.825 4.727,3.825 5.402,4.504 6.976,5.628 1.577,1.126 2.702,2.477 1.353,2.477 -1.349,0 -5.628,0 -6.077,-0.676 -0.449,-0.676 -2.476,-1.126 -3.828,-2.701 -1.349,-1.574 -4.275,-2.701 -4.949,-4.051 -0.677,-1.352 -1.577,-1.801 -2.702,-1.801 -1.125,0 -2.25,1.35 -3.827,2.926 -1.577,1.576 -0.898,-0.899 -2.926,-0.225 -2.027,0.676 -4.275,-0.226 -5.402,-1.126 -1.127,-0.9 -0.899,-2.25 -2.699,-1.575 -1.8,0.675 -2.926,0.225 -2.251,-1.125 0.675,-1.35 0.224,-3.152 0.224,-3.152 0,0 0.677,-2.251 -0.898,-2.7 -1.575,-0.449 -1.576,-2.025 -3.152,-2.477 -1.576,-0.452 -4.051,-1.575 -4.051,-1.575 0,0 -0.225,0 -0.901,-0.225 -0.676,-0.225 -0.675,-0.226 -2.476,-0.675 -1.801,-0.449 -3.152,-0.002 -4.051,-1.126 -0.902,-1.125 -0.451,-2.701 -0.451,-2.701 0,0 3.601,0.45 0,-2.251 l -3.601,-2.7 c 0,0 0.448,-0.226 0.224,-0.676 -0.227,-0.452 2.247,0 2.247,0 0.902,-0.225 4.052,-2.476 4.278,1.576 0.226,4.052 0.448,2.925 1.801,5.176 1.353,2.251 2.248,2.928 3.824,1.802 1.576,-1.126 3.376,-1.127 3.826,-3.151 0.451,-2.026 0.451,-2.026 1.801,-2.026 1.35,0 1.801,-0.225 2.479,0.677 0.674,0.898 1.122,-0.002 4.05,1.574 2.928,1.576 2.78152,-0.25467 4.58452,1.32233" />
    <path
       style="opacity:1;fill:none;stroke:#000000;stroke-width:3;stroke-miterlimit:4;stroke-dasharray:none;stroke-opacity:1"
       id="path16"
       d="m 245.56003,304.17143 c -2.925,0.9 -11.62809,2.90494 -12.75309,3.12894 -1.125,0.224 -5.627,1.575 -4.276,4.275 1.351,2.7 1.351,3.152 0,6.529 -1.351,3.377 -3.376,4.502 -3.376,6.076 0,1.575 -0.901,3.15 -1.125,4.276 -0.226,1.126 2.025,-1.126 -0.675,2.251 -2.7,3.377 -2.926,2.476 -3.827,4.502 -0.9,2.025 0,0.449 -0.9,2.025 -0.9,1.576 -3.151,2.25 -3.151,2.25 0,0 0.224,1.126 -0.676,0.676 -0.9,-0.45 -0.675,0.225 -4.052,-0.676 -3.377,-0.901 -3.826,-3.149 -4.276,-1.575 -0.45,1.575 0.225,2.477 2.251,4.052 2.025,1.576 5.402,2.025 4.501,3.602 -0.901,1.577 -0.9,1.576 -1.575,2.476 -0.676,0.901 0.9,0.225 -0.676,0.901 -1.576,0.676 -2.476,3.602 -3.151,3.602 -0.675,0 -1.126,1.125 -2.026,0.675 -0.9,-0.45 -3.15,-2.026 -3.601,-1.126 -0.451,0.9 -1.351,-1.126 -1.126,2.025 0.225,3.151 0.676,4.952 -0.45,5.628 -1.126,0.676 -3.827,0 -3.827,0 l -0.45,-1.126 -1.575,0.45 c 0,0 -0.675,2.701 0.45,3.151 1.125,0.45 0.9,0.899 2.025,2.25 1.125,1.351 0.451,3.827 0.451,3.827 0,0 0,0.676 -1.125,1.801 -1.125,1.125 -1.576,2.026 -1.801,2.701 -0.226,0.675 -1.576,3.602 0.45,3.376 2.025,-0.226 3.602,-1.351 3.602,2.251 0,3.602 0.9,2.702 -0.225,5.177 -1.126,2.476 -2.026,2.701 -2.251,4.951 -0.224,2.251 0.226,2.476 0.676,3.827 0.45,1.351 1.576,0.675 0.45,1.351 -1.123,0.675 -4.499,10e-4 -4.499,10e-4 -1.576,-0.9 -4.952,-2.476 -6.077,-3.376 -1.125,-0.9 -4.501,-5.854 -4.501,-5.854 l -2.477,-4.727 c 0,0 -2.925,-3.601 -2.25,-4.951 0.675,-1.351 2.026,-2.251 2.026,-2.926 0,-0.675 1.35,-2.477 0.224,-3.151 -1.125,-0.676 -1.125,-0.9 -1.801,-2.926 -0.675,-2.025 -0.675,-3.828 -1.575,-4.277 -0.9,-0.449 -1.576,-3.376 -2.476,-3.601 -0.9,-0.225 -1.801,-1.801 -1.801,-1.801 l -1.351,-18.232 c 0,0 -0.451,-8.327 -0.9,-10.129 -0.449,-1.802 0.675,-5.626 -0.451,-9.003 -1.126,-3.377 0.226,-7.427 -0.45,-8.778 -0.676,-1.351 0.45,-5.176 -0.225,-8.777 -0.675,-3.601 2.701,-8.103 0,-9.453 -2.701,-1.35 -0.675,-3.377 -2.926,-3.377 -2.251,0 -3.826,-1.126 -5.852,-2.7 -2.026,-1.576 -5.853,-4.503 -6.978,-5.629 -1.125,-1.124 -4.727,-4.051 -5.852,-4.951 -1.125,-0.9 -2.251,-4.727 -3.151,-5.853 -0.9,-1.124 -1.35,-4.5 -2.701,-6.526 -1.351,-2.025 -3.151,-5.401 -3.602,-6.077 -0.451,-0.676 -5.402,-6.527 -5.402,-6.527 l 0.45,-3.601 c 0,0 3.376,-2.026 2.926,-2.701 -0.45,-0.675 0.226,-1.352 -1.351,-2.701 -1.577,-1.349 -1.351,-3.828 0,-4.952 1.351,-1.127 3.376,-4.728 3.376,-4.728 l 3.376,-5.626 c 0,0 2.702,-2.928 2.702,-4.953 0,-2.025 3.826,-3.375 1.575,-5.176 -2.251,-1.801 -1.125,-3.377 -1.801,-4.728 -0.676,-1.351 -0.225,-2.25 1.801,-3.601 2.026,-1.351 5.627,-6.302 5.627,-6.302 0,0 2.701,-0.676 3.376,-0.676 0.675,0 1.801,-7.204 3.827,-2.477 2.026,4.727 2.701,2.251 2.026,5.627 -0.675,3.376 0.9,2.702 1.8,1.802 0.9,-0.9 -0.451,0.675 1.35,-3.378 1.801,-4.053 1.126,-5.401 2.251,-4.275 1.125,1.126 1.575,1.351 3.601,2.026 2.025,0.675 2.701,0.449 3.375,1.8 0.675,1.351 0.451,-0.45 4.277,0.226 3.826,0.676 9.228,-1.351 8.553,0.899 -0.675,2.251 -2.026,-0.225 1.125,2.251 3.151,2.476 3.602,2.926 5.402,3.377 1.8,0.451 3.376,0.225 6.078,2.926 2.702,2.701 3.376,2.926 4.051,4.275 0.675,1.349 1.8,0.451 2.926,1.801 1.126,1.35 2.701,1.352 4.276,1.352 1.575,0 0,-1.352 2.476,0.45 2.476,1.802 4.277,2.024 5.402,5.626 1.125,3.602 3.376,3.377 1.575,6.979 -1.801,3.602 -5.401,5.177 -3.826,4.952 1.575,-0.226 4.502,-1.577 5.402,-1.351 0.9,0.224 1.35,-0.675 2.701,0 1.351,0.675 1.576,-0.9 1.351,0.675 -0.225,1.575 -0.226,0 -0.226,1.576 0,1.576 -0.45,-1.576 2.251,-0.9 2.701,0.676 1.125,-1.352 4.276,1.575 3.151,2.927 3.152,2.027 4.276,3.602 1.126,1.574 2.251,-0.899 2.927,-0.225 0.676,0.674 2.701,0.224 4.727,0.675 2.026,0.451 0.675,-1.35 3.827,0.675 3.15,2.025 6.302,1.35 6.977,3.151 0.675,1.801 2.477,1.125 3.376,2.251 0.899,1.126 1.35,-0.451 2.251,1.126 0.9,1.574 3.602,1.124 3.151,2.699 -0.451,1.577 0.674,0.676 0.224,2.926 -0.45,2.25 -2.026,5.854 -3.375,6.753 -1.349,0.899 -1.35,2.026 -2.251,3.151 -0.901,1.125 -0.675,-1.125 -1.801,2.026 -1.126,3.151 -0.9,3.602 -1.8,6.527 -0.9,2.925 -0.225,0 -0.9,2.926 -0.675,2.926 -0.225,4.727 -0.9,8.104 -0.675,3.377 -0.45,3.376 -0.9,5.852 -0.45,2.476 1.125,-1.124 -0.901,4.051 -2.025,5.178 -1.28493,2.74512 -1.95993,4.99712" />
    <path
       style="opacity:1;fill:none;stroke:#000000;stroke-width:3;stroke-miterlimit:4;stroke-dasharray:none;stroke-opacity:1"
       id="path6"
       d="m 483.94348,298.09243 c -1.126,0.45 -3.76754,2.00394 -3.54254,3.57994 0.225,1.576 0.226,6.302 0.226,6.302 l 2.927,4.502 c 0,0 0.9,-0.675 2.701,-0.675 1.801,0 3.601,-1.574 3.601,-1.574 0,0 2.027,0.448 1.8,-2.026 -0.225,-2.477 0.902,-5.402 0.675,-6.078 -0.224,-0.675 2.027,-3.602 2.027,-4.276 0,-0.676 2.251,-3.825 2.251,-4.952 0,-1.127 1.575,-2.926 1.8,-4.275 0.225,-1.349 0.45,-4.502 0.9,-5.402 0.45,-0.9 0.676,-1.801 0.676,-2.701 v -2.701 l -1.577,-4.955 c -0.675,2.477 -3.151,6.077 -3.151,6.077 l -4.503,2.251 c 0,0 -1.573,1.351 -2.475,1.576 -0.9,0.224 -3.151,1.351 -3.151,1.351 0,0 -2.025,-0.451 -1.351,1.574 0.675,2.026 0.901,4.503 0.675,5.177 -0.224,0.676 -0.224,2.027 -0.224,3.828" />
  </g>
  <g
     style="display:inline"
     id="layer1">
    <path
       id="path12-3"
       d="m 395.85314,105.47521 c -0.39577,-0.17214 -0.55287,-0.77947 -0.30859,-1.19299 0.18481,-0.31285 0.68081,-0.50893 1.67086,-0.6605 1.44555,-0.22131 1.94134,-0.42439 2.01494,-0.82535 0.15686,-0.8545 0.27277,-4.985108 0.19451,-6.931458 l -0.0498,-1.239311 -0.57365,-0.16293 c -2.37761,-0.67528 -4.43636,-2.54947 -5.14188,-4.680928 -0.19202,-0.580142 -0.21232,-0.721394 -0.21333,-1.484739 -9.7e-4,-0.774896 0.0215,-0.928799 0.27595,-1.889672 0.48791,-1.842056 1.32004,-4.177994 1.75357,-4.922588 0.096,-0.164807 0.25017,-0.369802 0.34268,-0.455548 l 0.16822,-0.155894 h 4.46901 c 4.4345,0 4.4704,9.74e-4 4.64877,0.141398 0.48206,0.379188 1.72375,3.694228 2.23475,5.966285 0.29892,1.329099 0.18731,2.37632 -0.37587,3.526797 -0.54183,1.106861 -1.46536,2.126497 -2.62783,2.901299 -0.65278,0.43508 -1.62732,0.89413 -2.2642,1.06652 -0.41157,0.11141 -0.43537,0.12913 -0.48406,0.36057 -0.0854,0.40576 -0.0561,6.641139 0.0347,7.373579 0.0444,0.35823 0.099,0.69908 0.12139,0.75743 0.0516,0.13448 0.63327,0.40748 1.07374,0.50397 0.1856,0.0406 0.67151,0.12404 1.07982,0.1853 1.24756,0.18718 1.62804,0.4644 1.57159,1.1451 -0.0353,0.42567 -0.16888,0.607 -0.51877,0.70419 -0.15075,0.0419 -1.88225,0.0666 -4.56221,0.0652 -3.52828,-0.002 -4.35861,-0.0194 -4.53422,-0.0958 z"
       style="fill:#7d2d3f;fill-opacity:1;stroke-width:0.06748822" />
    <path
       id="path12-3-7"
       d="m 381.27027,90.706276 c -0.39577,-0.17214 -0.55287,-0.77947 -0.30859,-1.19299 0.18481,-0.31285 0.68081,-0.50893 1.67086,-0.6605 1.44555,-0.22131 1.94134,-0.42439 2.01494,-0.82535 0.15686,-0.8545 0.27277,-4.98511 0.19451,-6.93146 l -0.0498,-1.23931 -0.57365,-0.16293 c -2.37761,-0.67528 -4.43636,-2.54947 -5.14188,-4.68093 -0.19202,-0.58014 -0.21232,-0.72139 -0.21333,-1.484737 -9.7e-4,-0.774896 0.0215,-0.928799 0.27595,-1.889672 0.48791,-1.842056 1.32004,-4.177994 1.75357,-4.922588 0.096,-0.164807 0.25017,-0.369802 0.34268,-0.455548 l 0.16822,-0.155894 h 4.46901 c 4.4345,0 4.4704,9.74e-4 4.64877,0.141398 0.48206,0.379188 1.72375,3.694228 2.23475,5.966285 0.29892,1.329099 0.18731,2.376316 -0.37587,3.526796 -0.54183,1.10686 -1.46536,2.1265 -2.62783,2.9013 -0.65278,0.43508 -1.62732,0.89413 -2.2642,1.06652 -0.41157,0.11141 -0.43537,0.12913 -0.48406,0.36057 -0.0854,0.40576 -0.0561,6.64114 0.0347,7.37358 0.0444,0.35823 0.099,0.69908 0.12139,0.75743 0.0516,0.13448 0.63327,0.40748 1.07374,0.50397 0.1856,0.0406 0.67151,0.12404 1.07982,0.1853 1.24756,0.18718 1.62804,0.4644 1.57159,1.1451 -0.0353,0.42567 -0.16888,0.607 -0.51877,0.70419 -0.15075,0.0419 -1.88225,0.0666 -4.56221,0.0652 -3.52828,-0.002 -4.35861,-0.0194 -4.53422,-0.0958 z"
       style="display:inline;fill:#7d2d3f;fill-opacity:1;stroke-width:0.06748822" />
    <path
       id="path12-3-5"
       d="m 346.94132,116.48745 c -0.39577,-0.17214 -0.55287,-0.77947 -0.30859,-1.19299 0.18481,-0.31285 0.68081,-0.50893 1.67086,-0.6605 1.44555,-0.22131 1.94134,-0.42439 2.01494,-0.82535 0.15686,-0.8545 0.27277,-4.98511 0.19451,-6.93146 l -0.0498,-1.23931 -0.57365,-0.16293 c -2.37761,-0.67528 -4.43636,-2.54947 -5.14188,-4.68093 -0.19202,-0.58014 -0.21232,-0.72139 -0.21333,-1.484734 -9.7e-4,-0.774896 0.0215,-0.928799 0.27595,-1.889672 0.48791,-1.842056 1.32004,-4.177994 1.75357,-4.922588 0.096,-0.164807 0.25017,-0.369802 0.34268,-0.455548 l 0.16822,-0.155894 h 4.46901 c 4.4345,0 4.4704,9.74e-4 4.64877,0.141398 0.48206,0.379188 1.72375,3.694228 2.23475,5.966285 0.29892,1.329099 0.18731,2.376323 -0.37587,3.526793 -0.54183,1.10686 -1.46536,2.1265 -2.62783,2.9013 -0.65278,0.43508 -1.62732,0.89413 -2.2642,1.06652 -0.41157,0.11141 -0.43537,0.12913 -0.48406,0.36057 -0.0854,0.40576 -0.0561,6.64114 0.0347,7.37358 0.0444,0.35823 0.099,0.69908 0.12139,0.75743 0.0516,0.13448 0.63327,0.40748 1.07374,0.50397 0.1856,0.0406 0.67151,0.12404 1.07982,0.1853 1.24756,0.18718 1.62804,0.4644 1.57159,1.1451 -0.0353,0.42567 -0.16888,0.607 -0.51877,0.70419 -0.15075,0.0419 -1.88225,0.0666 -4.56221,0.0652 -3.52828,-0.002 -4.35861,-0.0194 -4.53422,-0.0958 z"
       style="display:inline;fill:#7d2d3f;fill-opacity:1;stroke-width:0.06748822" />
    <path
       id="path12-3-3"
       d="m 751.87793,329.45329 c -0.39577,-0.17214 -0.55287,-0.77947 -0.30859,-1.19299 0.18481,-0.31285 0.68081,-0.50893 1.67086,-0.6605 1.44555,-0.22131 1.94134,-0.42439 2.01494,-0.82535 0.15686,-0.8545 0.27277,-4.98511 0.19451,-6.93146 l -0.0498,-1.23931 -0.57365,-0.16293 c -2.37761,-0.67528 -4.43636,-2.54947 -5.14188,-4.68093 -0.19202,-0.58014 -0.21232,-0.72139 -0.21333,-1.48474 -9.7e-4,-0.77489 0.0215,-0.9288 0.27595,-1.88967 0.48791,-1.84206 1.32004,-4.17799 1.75357,-4.92259 0.096,-0.16481 0.25017,-0.3698 0.34268,-0.45555 l 0.16822,-0.15589 h 4.46901 c 4.4345,0 4.4704,9.7e-4 4.64877,0.1414 0.48206,0.37919 1.72375,3.69423 2.23475,5.96628 0.29892,1.3291 0.18731,2.37632 -0.37587,3.5268 -0.54183,1.10686 -1.46536,2.1265 -2.62783,2.9013 -0.65278,0.43508 -1.62732,0.89413 -2.2642,1.06652 -0.41157,0.11141 -0.43537,0.12913 -0.48406,0.36057 -0.0854,0.40576 -0.0561,6.64114 0.0347,7.37358 0.0444,0.35823 0.099,0.69908 0.12139,0.75743 0.0516,0.13448 0.63327,0.40748 1.07374,0.50397 0.1856,0.0406 0.67151,0.12404 1.07982,0.1853 1.24756,0.18718 1.62804,0.4644 1.57159,1.1451 -0.0353,0.42567 -0.16888,0.607 -0.51877,0.70419 -0.15075,0.0419 -1.88225,0.0666 -4.56221,0.0652 -3.52828,-0.002 -4.35861,-0.0194 -4.53422,-0.0958 z"
       style="display:inline;fill:#7d2d3f;fill-opacity:1;stroke-width:0.06748822" />
    <path
       id="path12-3-56"
       d="m 170.07629,103.28374 c -0.39577,-0.17214 -0.55287,-0.77947 -0.30859,-1.19299 0.18481,-0.31285 0.68081,-0.50893 1.67086,-0.6605 1.44555,-0.22131 1.94134,-0.42439 2.01494,-0.82535 0.15686,-0.854499 0.27277,-4.985109 0.19451,-6.931459 l -0.0498,-1.23931 -0.57365,-0.16293 c -2.37761,-0.67528 -4.43636,-2.54947 -5.14188,-4.68092 -0.19202,-0.58015 -0.21232,-0.7214 -0.21333,-1.48474 -9.7e-4,-0.7749 0.0215,-0.9288 0.27595,-1.88968 0.48791,-1.84205 1.32004,-4.17799 1.75357,-4.92258 0.096,-0.16481 0.25017,-0.36981 0.34268,-0.45555 l 0.16822,-0.1559 h 4.46901 c 4.4345,0 4.4704,9.8e-4 4.64877,0.1414 0.48206,0.37919 1.72375,3.69423 2.23475,5.96629 0.29892,1.3291 0.18731,2.37632 -0.37587,3.52679 -0.54183,1.10687 -1.46536,2.1265 -2.62783,2.9013 -0.65278,0.43508 -1.62732,0.89413 -2.2642,1.06652 -0.41157,0.11141 -0.43537,0.12913 -0.48406,0.36057 -0.0854,0.40576 -0.0561,6.64114 0.0347,7.373579 0.0444,0.35823 0.099,0.69908 0.12139,0.75743 0.0516,0.13448 0.63327,0.40748 1.07374,0.50397 0.1856,0.0406 0.67151,0.12404 1.07982,0.1853 1.24756,0.18718 1.62804,0.4644 1.57159,1.1451 -0.0353,0.42567 -0.16888,0.607 -0.51877,0.70419 -0.15075,0.0419 -1.88225,0.0666 -4.56221,0.0652 -3.52828,-0.002 -4.35861,-0.0194 -4.53422,-0.0958 z"
       style="display:inline;fill:#7d2d3f;fill-opacity:1;stroke-width:0.06748822" />
    <path
       id="path12-3-2"
       d="m 85.067746,122.00123 c -0.39577,-0.17214 -0.55287,-0.77947 -0.30859,-1.19299 0.18481,-0.31285 0.68081,-0.50893 1.67086,-0.6605 1.44555,-0.22131 1.94134,-0.42439 2.01494,-0.82535 0.15686,-0.8545 0.27277,-4.98511 0.19451,-6.93146 l -0.0498,-1.23931 -0.57365,-0.16293 c -2.37761,-0.67528 -4.43636,-2.54947 -5.14188,-4.68093 -0.19202,-0.58014 -0.21232,-0.72139 -0.21333,-1.48474 -9.7e-4,-0.77489 0.0215,-0.92879 0.27595,-1.88967 0.48791,-1.84205 1.32004,-4.177993 1.75357,-4.922593 0.096,-0.1648 0.25017,-0.3698 0.34268,-0.45554 l 0.16822,-0.1559 h 4.46901 c 4.4345,0 4.4704,9.8e-4 4.64877,0.1414 0.48206,0.37919 1.72375,3.694233 2.23475,5.966293 0.29892,1.32909 0.18731,2.37632 -0.37587,3.52679 -0.54183,1.10686 -1.46536,2.1265 -2.62783,2.9013 -0.65278,0.43508 -1.62732,0.89413 -2.2642,1.06652 -0.41157,0.11141 -0.43537,0.12913 -0.48406,0.36057 -0.0854,0.40576 -0.0561,6.64114 0.0347,7.37358 0.0444,0.35823 0.099,0.69908 0.12139,0.75743 0.0516,0.13448 0.63327,0.40748 1.07374,0.50397 0.1856,0.0406 0.67151,0.12404 1.07982,0.1853 1.24756,0.18718 1.62804,0.4644 1.57159,1.1451 -0.0353,0.42567 -0.16888,0.607 -0.51877,0.70419 -0.15075,0.0419 -1.88225,0.0666 -4.56221,0.0652 -3.52828,-0.002 -4.35861,-0.0194 -4.53422,-0.0958 z"
       style="display:inline;fill:#7d2d3f;fill-opacity:1;stroke-width:0.06748822" />
    <path
       id="path12-3-9"
       d="m 223.10916,274.86064 c -0.39577,-0.17214 -0.55287,-0.77947 -0.30859,-1.19299 0.18481,-0.31285 0.68081,-0.50893 1.67086,-0.6605 1.44555,-0.22131 1.94134,-0.42439 2.01494,-0.82535 0.15686,-0.8545 0.27277,-4.98511 0.19451,-6.93146 l -0.0498,-1.23931 -0.57365,-0.16293 c -2.37761,-0.67528 -4.43636,-2.54947 -5.14188,-4.68093 -0.19202,-0.58014 -0.21232,-0.72139 -0.21333,-1.48474 -9.7e-4,-0.77489 0.0215,-0.9288 0.27595,-1.88967 0.48791,-1.84206 1.32004,-4.17799 1.75357,-4.92259 0.096,-0.1648 0.25017,-0.3698 0.34268,-0.45555 l 0.16822,-0.15589 h 4.46901 c 4.4345,0 4.4704,9.7e-4 4.64877,0.1414 0.48206,0.37919 1.72375,3.69423 2.23475,5.96628 0.29892,1.3291 0.18731,2.37632 -0.37587,3.5268 -0.54183,1.10686 -1.46536,2.1265 -2.62783,2.9013 -0.65278,0.43508 -1.62732,0.89413 -2.2642,1.06652 -0.41157,0.11141 -0.43537,0.12913 -0.48406,0.36057 -0.0854,0.40576 -0.0561,6.64114 0.0347,7.37358 0.0444,0.35823 0.099,0.69908 0.12139,0.75743 0.0516,0.13448 0.63327,0.40748 1.07374,0.50397 0.1856,0.0406 0.67151,0.12404 1.07982,0.1853 1.24756,0.18718 1.62804,0.4644 1.57159,1.1451 -0.0353,0.42567 -0.16888,0.607 -0.51877,0.70419 -0.15075,0.0419 -1.88225,0.0666 -4.56221,0.0652 -3.52828,-0.002 -4.35861,-0.0194 -4.53422,-0.0958 z"
       style="display:inline;fill:#7d2d3f;fill-opacity:1;stroke-width:0.06748822" />
    <path
       id="path12-3-1"
       d="m 429.00142,81.446693 c -0.39577,-0.17214 -0.55287,-0.77947 -0.30859,-1.19299 0.18481,-0.31285 0.68081,-0.50893 1.67086,-0.6605 1.44555,-0.22131 1.94134,-0.42439 2.01494,-0.82535 0.15686,-0.8545 0.27277,-4.98511 0.19451,-6.93146 l -0.0498,-1.23931 -0.57365,-0.16293 c -2.37761,-0.67528 -4.43636,-2.54947 -5.14188,-4.68093 -0.19202,-0.58014 -0.21232,-0.72139 -0.21333,-1.48474 -9.7e-4,-0.77489 0.0215,-0.9288 0.27595,-1.88967 0.48791,-1.84206 1.32004,-4.17799 1.75357,-4.92259 0.096,-0.16481 0.25017,-0.3698 0.34268,-0.45555 l 0.16822,-0.15589 h 4.46901 c 4.4345,0 4.4704,9.7e-4 4.64877,0.1414 0.48206,0.37919 1.72375,3.69423 2.23475,5.96628 0.29892,1.3291 0.18731,2.37632 -0.37587,3.5268 -0.54183,1.10686 -1.46536,2.1265 -2.62783,2.9013 -0.65278,0.43508 -1.62732,0.89413 -2.2642,1.06652 -0.41157,0.11141 -0.43537,0.12913 -0.48406,0.36057 -0.0854,0.40576 -0.0561,6.64114 0.0347,7.37358 0.0444,0.35823 0.099,0.69908 0.12139,0.75743 0.0516,0.13448 0.63327,0.40748 1.07374,0.50397 0.1856,0.0406 0.67151,0.12404 1.07982,0.1853 1.24756,0.18718 1.62804,0.4644 1.57159,1.1451 -0.0353,0.42567 -0.16888,0.607 -0.51877,0.70419 -0.15075,0.0419 -1.88225,0.0666 -4.56221,0.0652 -3.52828,-0.002 -4.35861,-0.0194 -4.53422,-0.0958 z"
       style="display:inline;fill:#7d2d3f;fill-opacity:1;stroke-width:0.06748822" />
  </g>
</svg>
